<svg width="24" height="24" viewBox="0 0 24 24" fill="none" xmlns="http://www.w3.org/2000/svg">
<path fill-rule="evenodd" clip-rule="evenodd" d="M3.1326 12.5068C3.01754 12.7594 3 12.8963 3 12.933C3 13.0367 3.11086 13.4168 3.62551 14.035C4.10037 14.6054 4.80624 15.242 5.6823 15.8392C7.44504 17.0409 9.75451 17.988 12.0099 17.9999C14.2619 18.0117 16.5654 17.0821 18.3224 15.8846C19.1957 15.2895 19.8989 14.6516 20.3719 14.0761C20.8808 13.4571 21 13.0618 21 12.933C21 12.7794 20.8602 12.3227 20.3417 11.6133C19.8593 10.9533 19.1487 10.2107 18.2745 9.51374C16.5076 8.1052 14.2236 6.99996 12.0046 6.99996C9.78933 6.99996 7.50385 8.11904 5.73184 9.53807C4.85554 10.2398 4.14242 10.9857 3.65807 11.6445C3.41576 11.974 3.24213 12.2663 3.1326 12.5068ZM12 16C13.933 16 15.5 14.433 15.5 12.5C15.5 10.567 13.933 8.99996 12 8.99996C10.067 8.99996 8.5 10.567 8.5 12.5C8.5 14.433 10.067 16 12 16Z" fill="#7C7B7B"/>
<path fill-rule="evenodd" clip-rule="evenodd" d="M3.1326 12.5068C3.01754 12.7594 3 12.8963 3 12.933C3 13.0367 3.11086 13.4168 3.62551 14.035C4.10037 14.6054 4.80624 15.242 5.6823 15.8392C7.44504 17.0409 9.75451 17.988 12.0099 17.9999C14.2619 18.0117 16.5654 17.0821 18.3224 15.8846C19.1957 15.2895 19.8989 14.6516 20.3719 14.0761C20.8808 13.4571 21 13.0618 21 12.933C21 12.7794 20.8602 12.3227 20.3417 11.6133C19.8593 10.9533 19.1487 10.2107 18.2745 9.51374C16.5076 8.1052 14.2236 6.99996 12.0046 6.99996C9.78933 6.99996 7.50385 8.11904 5.73184 9.53807C4.85554 10.2398 4.14242 10.9857 3.65807 11.6445C3.41576 11.974 3.24213 12.2663 3.1326 12.5068ZM4.48169 7.97694C6.44828 6.40209 9.16511 4.99996 12.0046 4.99996C14.8404 4.99996 17.5541 6.38167 19.5212 7.94987C20.514 8.74128 21.3544 9.60951 21.9564 10.4331C22.5223 11.2073 23 12.107 23 12.933C23 13.7838 22.4975 14.6399 21.917 15.3462C21.3006 16.096 20.4465 16.8574 19.4487 17.5373C17.4636 18.8902 14.7694 20.0144 11.9994 19.9999C9.23263 19.9853 6.5398 18.8443 4.55575 17.4918C3.55842 16.8119 2.70477 16.0549 2.08846 15.3146C1.51196 14.6222 1 13.7746 1 12.933C1 12.497 1.13714 12.0628 1.31252 11.6778C1.49343 11.2806 1.746 10.8688 2.04671 10.4598C2.64842 9.64136 3.48868 8.77213 4.48169 7.97694Z" fill="#7C7B7B"/>
<path d="M12 14C12.8284 14 13.5 13.3284 13.5 12.5C13.5 11.6715 12.8284 11 12 11C11.1716 11 10.5 11.6715 10.5 12.5C10.5 13.3284 11.1716 14 12 14Z" fill="#7C7B7B"/>
</svg>
