<svg width="24" height="24" viewBox="0 0 24 24" fill="none" xmlns="http://www.w3.org/2000/svg">
<path d="M7.13541 8.5506C6.64193 8.85303 6.17111 9.18636 5.73184 9.53813C4.85554 10.2399 4.14242 10.9857 3.65807 11.6445C3.41576 11.9741 3.24213 12.2664 3.1326 12.5069C3.01754 12.7595 3 12.8964 3 12.933C3 13.0367 3.11086 13.4169 3.62552 14.035C4.10037 14.6054 4.80624 15.2421 5.6823 15.8393C7.44504 17.041 9.75451 17.9881 12.0099 17.9999C13.2965 18.0067 14.6 17.7061 15.8087 17.2239L13.9749 15.39C13.4127 15.7749 12.7327 16 12 16C10.067 16 8.5 14.433 8.5 12.5C8.5 11.7674 8.72512 11.0873 9.10997 10.5252L7.13541 8.5506Z" fill="#7C7B7B"/>
<path d="M15.2398 13.8266L17.6979 16.2847C17.9127 16.1555 18.1211 16.0219 18.3224 15.8847C18.6948 15.6309 19.0363 15.3694 19.3422 15.1082C19.7536 14.7569 20.1006 14.4063 20.3719 14.0762C20.8808 13.4571 21 13.0618 21 12.933C21 12.7794 20.8602 12.3227 20.3417 11.6133C19.8593 10.9533 19.1487 10.2108 18.2745 9.5138C16.5076 8.10526 14.2236 7.00002 12.0046 7.00002C11.7527 7.00002 11.4999 7.01449 11.247 7.04222C10.4977 7.12442 9.74799 7.32309 9.02015 7.60692L10.6734 9.26017C11.0825 9.09247 11.5305 9.00002 12 9.00002C13.933 9.00002 15.5 10.567 15.5 12.5C15.5 12.9695 15.4075 13.4175 15.2398 13.8266Z" fill="#7C7B7B"/>
<path fill-rule="evenodd" clip-rule="evenodd" d="M3.70613 2.29289C3.31561 1.90237 2.68244 1.90237 2.29192 2.29289C1.90139 2.68342 1.90139 3.31658 2.29192 3.70711L5.68665 7.10184C5.26053 7.38154 4.85741 7.67612 4.48169 7.977C3.48868 8.77219 2.64842 9.64142 2.04671 10.4598C1.746 10.8688 1.49343 11.2807 1.31252 11.6778C1.13714 12.0628 1 12.497 1 12.933C1 13.7746 1.51196 14.6222 2.08847 15.3147C2.70478 16.055 3.55842 16.8119 4.55575 17.4918C6.5398 18.8444 9.23263 19.9854 11.9994 19.9999C13.8763 20.0098 15.7185 19.4968 17.3289 18.7441L20.2919 21.7071C20.6824 22.0976 21.3156 22.0976 21.7061 21.7071C22.0967 21.3166 22.0967 20.6834 21.7061 20.2929L3.70613 2.29289ZM5.73184 9.53813C6.17111 9.18636 6.64193 8.85303 7.13541 8.5506L9.10997 10.5252L10.5852 12.0004L12.4996 13.9148L13.9749 15.39L15.8087 17.2239C14.6 17.7061 13.2965 18.0067 12.0099 17.9999C9.75451 17.9881 7.44504 17.041 5.6823 15.8393C4.80624 15.2421 4.10037 14.6054 3.62552 14.035C3.11086 13.4169 3 13.0367 3 12.933C3 12.8964 3.01754 12.7595 3.1326 12.5069C3.24213 12.2664 3.41576 11.9741 3.65807 11.6445C4.14242 10.9857 4.85554 10.2399 5.73184 9.53813ZM11.247 7.04222C11.4999 7.01449 11.7527 7.00002 12.0046 7.00002C14.2236 7.00002 16.5076 8.10526 18.2745 9.5138C19.1487 10.2108 19.8593 10.9533 20.3417 11.6133C20.8602 12.3227 21 12.7794 21 12.933C21 13.0618 20.8808 13.4571 20.3719 14.0762C20.1006 14.4063 19.7536 14.7569 19.3422 15.1082L20.7604 16.5258C21.2026 16.1384 21.5926 15.7407 21.917 15.3462C22.4975 14.64 23 13.7838 23 12.933C23 12.1071 22.5223 11.2074 21.9564 10.4332C21.3544 9.60957 20.514 8.74134 19.5212 7.94993C17.5541 6.38172 14.8404 5.00002 12.0046 5.00002C11.1722 5.00002 10.3503 5.12052 9.55478 5.33055L11.247 7.04222Z" fill="#7C7B7B"/>
<path d="M7.49835 6.08511L9.02015 7.60692C9.74799 7.32309 10.4977 7.12442 11.247 7.04222L9.55478 5.33055C8.84455 5.51806 8.15532 5.77693 7.49835 6.08511Z" fill="#7C7B7B"/>
<path d="M17.6979 16.2847L19.1494 17.7361C19.2508 17.6705 19.3507 17.6042 19.4487 17.5374C19.9216 17.2152 20.3621 16.8747 20.7604 16.5258L19.3422 15.1082C19.0363 15.3694 18.6948 15.6309 18.3224 15.8847C18.1211 16.0219 17.9127 16.1555 17.6979 16.2847Z" fill="#7C7B7B"/>
<path d="M12.4996 13.9148L10.5852 12.0004C10.53 12.1567 10.5 12.3248 10.5 12.5C10.5 13.3284 11.1716 14 12 14C12.1752 14 12.3433 13.97 12.4996 13.9148Z" fill="#7C7B7B"/>
<path d="M13.4154 12.0022L12.4978 11.0846C12.9258 11.2351 13.2649 11.5742 13.4154 12.0022Z" fill="#7C7B7B"/>
</svg>
