<svg width="20" height="20" viewBox="0 0 20 20" fill="none" xmlns="http://www.w3.org/2000/svg">
<g id="Iconly/Bold/Camera">
<g id="Camera">
<path id="Camera_2" fill-rule="evenodd" clip-rule="evenodd" d="M14.5346 5.197C14.568 5.25527 14.6263 5.29689 14.7013 5.29689C16.7013 5.29689 18.3346 6.92841 18.3346 8.92619V13.8707C18.3346 15.8685 16.7013 17.5 14.7013 17.5H5.3013C3.29297 17.5 1.66797 15.8685 1.66797 13.8707V8.92619C1.66797 6.92841 3.29297 5.29689 5.3013 5.29689C5.36797 5.29689 5.43464 5.2636 5.45964 5.197L5.50964 5.09711C5.53836 5.03665 5.56785 4.97455 5.59778 4.9115C5.81097 4.46246 6.04682 3.96567 6.19297 3.6737C6.5763 2.92453 7.2263 2.50832 8.03464 2.5H11.9596C12.768 2.50832 13.4263 2.92453 13.8096 3.6737C13.9409 3.93592 14.1409 4.35833 14.3336 4.76545C14.3734 4.84942 14.4128 4.93274 14.4513 5.01387L14.5346 5.197ZM13.9263 8.39346C13.9263 8.80967 14.2596 9.14263 14.6763 9.14263C15.093 9.14263 15.4346 8.80967 15.4346 8.39346C15.4346 7.97726 15.093 7.63597 14.6763 7.63597C14.2596 7.63597 13.9263 7.97726 13.9263 8.39346ZM8.55964 9.68366C8.9513 9.29243 9.45964 9.08433 10.0013 9.08433C10.543 9.08433 11.0513 9.29243 11.4346 9.67534C11.818 10.0582 12.0263 10.566 12.0263 11.1071C12.018 12.2225 11.118 13.1298 10.0013 13.1298C9.45964 13.1298 8.9513 12.9217 8.56797 12.5388C8.18464 12.1559 7.9763 11.6481 7.9763 11.1071V11.0988C7.96797 10.5743 8.1763 10.0666 8.55964 9.68366ZM12.3096 13.4212C11.718 14.0122 10.9013 14.3785 10.0013 14.3785C9.1263 14.3785 8.30963 14.0372 7.68463 13.4212C7.06797 12.7969 6.7263 11.9811 6.7263 11.1071C6.71797 10.2414 7.05963 9.42565 7.6763 8.80134C8.3013 8.17703 9.1263 7.83575 10.0013 7.83575C10.8763 7.83575 11.7013 8.17703 12.318 8.79302C12.9346 9.41732 13.2763 10.2414 13.2763 11.1071C13.268 12.0144 12.9013 12.8302 12.3096 13.4212Z" fill="white"/>
</g>
</g>
</svg>
