<svg width="23" height="23" viewBox="0 0 23 23" fill="none" xmlns="http://www.w3.org/2000/svg">
<g clip-path="url(#clip0_33852_8095)">
<path d="M0.584957 12.5421H2.59062C3.11768 16.5212 6.24865 19.6522 10.2277 20.1792V22.1849C10.2284 22.3977 10.4008 22.57 10.6135 22.5706H12.1564C12.3691 22.57 12.5415 22.3977 12.5421 22.1849V20.1792C16.5212 19.6522 19.6522 16.5212 20.1792 12.5421H22.1849C22.3977 12.5415 22.57 12.3691 22.5706 12.1564V10.6135C22.57 10.4008 22.3977 10.2284 22.1849 10.2277H20.1792C19.6522 6.24865 16.5212 3.11768 12.5421 2.59062V0.584957C12.5415 0.372118 12.3691 0.199901 12.1564 0.199219H10.6135C10.4008 0.199901 10.2284 0.372118 10.2277 0.584957V2.59062C6.24865 3.11768 3.11768 6.24865 2.59062 10.2277H0.584957C0.372118 10.2284 0.199901 10.4008 0.199219 10.6135V12.1564C0.199901 12.3691 0.372118 12.5415 0.584957 12.5421ZM11.3849 4.82773C15.0063 4.82773 17.9421 7.76361 17.9421 11.3849C17.9421 15.0063 15.0063 17.9421 11.3849 17.9421C7.76361 17.9421 4.82773 15.0063 4.82773 11.3849C4.83285 7.76565 7.76565 4.83285 11.3849 4.82773Z" fill="#15093E"/>
<path d="M14.4703 11.3846C14.4703 13.0888 13.0888 14.4703 11.3846 14.4703C9.68032 14.4703 8.29883 13.0888 8.29883 11.3846C8.29883 9.68032 9.68032 8.29883 11.3846 8.29883C13.0888 8.29883 14.4703 9.68032 14.4703 11.3846Z" fill="#15093E"/>
</g>
<defs>
<clipPath id="clip0_33852_8095">
<rect width="22.3714" height="22.3714" fill="white" transform="translate(0.199219 0.199219)"/>
</clipPath>
</defs>
</svg>
