<svg width="320" height="350" viewBox="0 0 320 350" fill="none" xmlns="http://www.w3.org/2000/svg">
<path opacity="0.04" fill-rule="evenodd" clip-rule="evenodd" d="M239.215 121.757C269.827 159.617 303.998 195.082 300.697 227.053C297.461 258.959 256.624 287.37 217.535 298.113C178.381 308.791 140.974 301.802 102.984 286.917C65.0597 272.096 26.5526 249.381 16.6508 217.022C6.81368 184.727 25.5818 142.726 53.3458 105.513C81.1097 68.3649 117.869 35.9413 149.711 39.8891C181.616 43.7722 208.604 83.9619 239.215 121.757Z" fill="#F8F8F8"/>
<circle cx="35" cy="248" r="3" fill="#397DFF"/>
<circle cx="160" cy="75" r="5" fill="#397DFF"/>
<circle cx="294" cy="187" r="5" fill="#397DFF"/>
<path fill-rule="evenodd" clip-rule="evenodd" d="M262.578 225.557C262.926 228.941 263.067 232.332 263.003 235.731C262.995 236.145 262.842 236.495 262.543 236.783C262.245 237.07 261.888 237.21 261.474 237.202C261.472 237.202 261.47 237.202 261.468 237.202C261.465 237.202 261.463 237.202 261.461 237.201C261.049 237.19 260.702 237.035 260.418 236.737C260.133 236.44 259.995 236.085 260.003 235.674C260.063 232.525 259.94 229.383 259.632 226.247C259.62 226.118 259.607 225.991 259.594 225.863C259.551 225.451 259.661 225.085 259.922 224.763C260.184 224.442 260.521 224.26 260.933 224.218C261.345 224.175 261.711 224.285 262.033 224.546C262.354 224.808 262.536 225.145 262.578 225.557ZM259.219 245.457C259.277 245.05 259.47 244.722 259.798 244.473C260.126 244.224 260.494 244.127 260.902 244.181C260.904 244.181 260.906 244.182 260.908 244.182C260.911 244.182 260.913 244.183 260.915 244.183C261.325 244.241 261.655 244.436 261.904 244.767C262.152 245.098 262.248 245.469 262.19 245.879C261.71 249.256 261.027 252.589 260.139 255.877C260.031 256.277 259.797 256.58 259.438 256.786C259.079 256.993 258.699 257.042 258.3 256.934L258.286 256.93C257.89 256.819 257.59 256.585 257.387 256.227C257.183 255.869 257.135 255.492 257.243 255.095C258.099 251.925 258.757 248.713 259.219 245.457ZM254.117 264.368C254.272 263.987 254.539 263.716 254.917 263.554C255.296 263.393 255.676 263.388 256.059 263.539C256.061 263.54 256.063 263.541 256.065 263.542C256.067 263.543 256.069 263.544 256.072 263.544C256.256 263.619 256.419 263.727 256.56 263.866C256.702 264.006 256.811 264.168 256.888 264.351C256.966 264.534 257.005 264.725 257.006 264.924C257.007 265.123 256.971 265.315 256.896 265.499C255.611 268.657 254.135 271.726 252.469 274.708C252.372 274.881 252.245 275.03 252.089 275.153C251.933 275.276 251.759 275.365 251.568 275.419C251.377 275.473 251.182 275.489 250.985 275.466C250.787 275.442 250.601 275.382 250.428 275.285C250.426 275.284 250.424 275.283 250.422 275.282C250.42 275.281 250.418 275.28 250.416 275.278C250.058 275.074 249.825 274.774 249.714 274.378C249.604 273.981 249.649 273.603 249.85 273.244C251.456 270.37 252.878 267.412 254.117 264.368ZM244.55 281.503C244.793 281.171 245.118 280.972 245.524 280.907C245.93 280.842 246.301 280.929 246.635 281.169C246.637 281.17 246.639 281.172 246.641 281.173C246.643 281.174 246.645 281.176 246.646 281.177C246.981 281.421 247.18 281.748 247.244 282.157C247.307 282.567 247.217 282.939 246.973 283.273C246.435 284.008 245.886 284.736 245.324 285.455C243.778 287.433 242.152 289.334 240.447 291.158C240.164 291.46 239.815 291.618 239.401 291.632C238.987 291.646 238.629 291.511 238.326 291.228L238.317 291.219C238.174 291.083 238.063 290.926 237.982 290.747C237.902 290.567 237.859 290.379 237.852 290.183C237.845 289.984 237.877 289.792 237.947 289.605C238.017 289.419 238.12 289.254 238.256 289.108C239.9 287.35 241.468 285.517 242.96 283.608C243.502 282.914 244.032 282.213 244.55 281.503ZM123.783 292.026C124.048 292.338 124.165 292.698 124.135 293.106C124.105 293.514 123.936 293.853 123.629 294.123C123.626 294.126 123.622 294.129 123.619 294.131C123.616 294.134 123.613 294.137 123.609 294.14C123.458 294.268 123.287 294.363 123.098 294.424C122.908 294.485 122.714 294.507 122.516 294.491C122.318 294.474 122.13 294.421 121.953 294.33C121.777 294.239 121.624 294.117 121.495 293.966C119.231 291.296 117.333 288.427 115.801 285.359C115.712 285.181 115.66 284.993 115.646 284.795C115.632 284.596 115.657 284.403 115.72 284.214C115.783 284.026 115.879 283.856 116.01 283.706C116.14 283.556 116.294 283.436 116.472 283.347C116.476 283.345 116.481 283.343 116.485 283.341C116.489 283.339 116.493 283.337 116.497 283.335C116.866 283.159 117.244 283.138 117.631 283.271C118.017 283.404 118.302 283.653 118.485 284.019C119.909 286.871 121.675 289.539 123.783 292.026ZM232.225 295.508C232.421 295.525 232.606 295.579 232.781 295.669C232.955 295.759 233.106 295.879 233.234 296.029C233.235 296.031 233.237 296.032 233.238 296.034C233.24 296.036 233.241 296.038 233.243 296.039C233.508 296.357 233.623 296.722 233.586 297.135C233.549 297.547 233.372 297.887 233.054 298.152C230.447 300.334 227.716 302.346 224.862 304.19C224.514 304.415 224.138 304.484 223.733 304.397C223.328 304.31 223.013 304.092 222.788 303.745C222.787 303.743 222.785 303.741 222.784 303.739C222.783 303.737 222.782 303.735 222.781 303.733C222.56 303.385 222.495 303.01 222.583 302.609C222.671 302.207 222.888 301.894 223.234 301.671C225.984 299.893 228.616 297.954 231.13 295.851C231.282 295.724 231.453 295.63 231.643 295.571C231.833 295.511 232.027 295.49 232.225 295.508ZM139.692 304.834C139.748 305.021 139.767 305.213 139.748 305.408C139.729 305.604 139.674 305.788 139.583 305.962C139.582 305.964 139.58 305.966 139.579 305.969C139.578 305.971 139.577 305.973 139.575 305.976C139.379 306.34 139.082 306.582 138.686 306.701C138.289 306.82 137.908 306.781 137.543 306.585C134.395 304.889 131.526 303.039 128.936 301.034C128.609 300.78 128.419 300.448 128.366 300.037C128.314 299.626 128.415 299.257 128.668 298.93C128.67 298.927 128.673 298.924 128.675 298.921C128.677 298.918 128.679 298.916 128.681 298.913C128.803 298.76 128.949 298.636 129.119 298.54C129.289 298.445 129.471 298.384 129.665 298.36C129.862 298.335 130.057 298.348 130.249 298.401C130.441 298.453 130.615 298.54 130.773 298.662C133.232 300.565 135.963 302.326 138.966 303.944C139.141 304.038 139.292 304.162 139.417 304.316C139.543 304.471 139.635 304.643 139.692 304.834ZM214.683 306.479C215.053 306.299 215.433 306.276 215.823 306.41C216.212 306.543 216.498 306.794 216.681 307.163C216.682 307.165 216.683 307.167 216.684 307.169C216.685 307.171 216.686 307.173 216.687 307.175C216.867 307.548 216.889 307.93 216.753 308.321C216.617 308.712 216.363 308.998 215.99 309.179C212.934 310.659 209.795 311.948 206.575 313.046C206.387 313.11 206.193 313.136 205.995 313.123C205.796 313.11 205.608 313.06 205.429 312.972C205.251 312.885 205.096 312.766 204.964 312.617C204.833 312.467 204.735 312.299 204.671 312.11L204.667 312.097C204.537 311.707 204.564 311.327 204.747 310.958C204.931 310.59 205.217 310.339 205.607 310.206C208.711 309.148 211.736 307.905 214.683 306.479ZM158.17 311.843C158.267 312.015 158.327 312.199 158.351 312.395C158.375 312.591 158.36 312.784 158.308 312.974L158.305 312.983C158.193 313.382 157.956 313.682 157.595 313.885C157.233 314.087 156.853 314.132 156.455 314.02C153.053 313.061 149.843 311.997 146.824 310.828C146.438 310.679 146.161 310.415 145.993 310.036C145.826 309.657 145.817 309.274 145.967 308.888C145.967 308.886 145.968 308.884 145.969 308.882C145.97 308.88 145.97 308.878 145.971 308.877C146.044 308.694 146.148 308.531 146.285 308.389C146.421 308.248 146.579 308.137 146.759 308.057C146.941 307.977 147.132 307.935 147.33 307.93C147.529 307.925 147.722 307.959 147.907 308.031C150.838 309.165 153.958 310.199 157.269 311.132C157.46 311.186 157.634 311.275 157.79 311.398C157.946 311.521 158.073 311.67 158.17 311.843ZM196.142 312.803C196.545 312.719 196.919 312.788 197.265 313.012C197.61 313.235 197.827 313.548 197.916 313.95C197.916 313.952 197.917 313.954 197.917 313.956C197.918 313.959 197.918 313.961 197.919 313.963C197.959 314.158 197.962 314.353 197.925 314.548C197.888 314.744 197.815 314.925 197.707 315.091C197.598 315.258 197.461 315.397 197.297 315.51C197.133 315.622 196.954 315.698 196.759 315.739C193.433 316.438 190.076 316.933 186.688 317.224C186.49 317.241 186.296 317.219 186.107 317.159C185.917 317.099 185.746 317.005 185.594 316.877C185.442 316.749 185.32 316.596 185.228 316.42C185.137 316.243 185.083 316.056 185.066 315.858L185.065 315.844C185.033 315.434 185.151 315.072 185.417 314.758C185.683 314.444 186.022 314.27 186.432 314.235C189.698 313.954 192.935 313.477 196.142 312.803ZM176.618 314.48C177.03 314.495 177.376 314.652 177.658 314.952C177.94 315.252 178.075 315.608 178.064 316.019L178.064 316.033C178.057 316.231 178.012 316.421 177.929 316.602C177.847 316.783 177.732 316.941 177.587 317.077C177.441 317.212 177.275 317.315 177.089 317.385C176.903 317.454 176.71 317.485 176.511 317.478C173.7 317.377 170.903 317.136 168.12 316.753C168.105 316.751 168.09 316.749 168.076 316.746C168.061 316.744 168.046 316.741 168.032 316.738L166.268 316.388C165.862 316.307 165.544 316.095 165.313 315.751C165.083 315.406 165.008 315.031 165.089 314.625C165.09 314.622 165.09 314.619 165.091 314.617C165.091 314.614 165.092 314.612 165.092 314.609C165.132 314.417 165.208 314.24 165.317 314.077C165.427 313.915 165.564 313.779 165.727 313.67C165.892 313.559 166.072 313.485 166.267 313.446C166.462 313.407 166.657 313.407 166.853 313.446L168.572 313.787C171.241 314.153 173.923 314.383 176.618 314.48Z" fill="#0D0938"/>
<rect width="17.8898" height="4.0505" rx="2" transform="matrix(0.848048 -0.529919 -0.529919 -0.848048 227.156 108.691)" fill="#0D0938"/>
<rect width="17.8898" height="4.0505" rx="2" transform="matrix(0.978148 -0.207912 -0.207912 -0.978148 230.803 119.1)" fill="#0D0938"/>
<rect x="216.328" y="99.0703" width="17.8898" height="4.0505" rx="2" transform="rotate(-61 216.328 99.0703)" fill="#0D0938"/>
<rect opacity="0.7" x="52" y="96" width="134" height="172" rx="15" fill="#397DFF"/>
<path fill-rule="evenodd" clip-rule="evenodd" d="M181.001 104H76.999C72.8571 104 69.3218 105.464 66.3931 108.393C63.4644 111.322 62 114.857 62 118.999V261.001C62 265.143 63.4644 268.678 66.3931 271.607C69.3218 274.536 72.8571 276 76.999 276H181.001C185.143 276 188.678 274.536 191.607 271.607C194.536 268.678 196 265.143 196 261.001V118.999C196 114.857 194.536 111.322 191.607 108.393C188.678 105.464 185.143 104 181.001 104ZM68.5144 110.514C70.8574 108.171 73.6856 107 76.999 107H181.001C184.314 107 187.143 108.171 189.486 110.514C191.829 112.857 193 115.686 193 118.999V261.001C193 264.314 191.829 267.143 189.486 269.486C187.143 271.829 184.314 273 181.001 273H76.999C73.6856 273 70.8574 271.829 68.5144 269.486C66.1715 267.143 65 264.314 65 261.001V118.999C65 115.686 66.1715 112.857 68.5144 110.514Z" fill="#0D0938"/>
<path fill-rule="evenodd" clip-rule="evenodd" d="M161 144C161 157.255 150.255 168 137 168C123.745 168 113 157.255 113 144C113 130.745 123.745 120 137 120C150.255 120 161 130.745 161 144ZM152.273 159.274C148.056 163.491 142.965 165.6 137 165.6C131.035 165.6 125.944 163.491 121.726 159.274C117.509 155.056 115.4 149.965 115.4 144C115.4 138.035 117.509 132.944 121.726 128.727C125.944 124.509 131.035 122.4 137 122.4C142.965 122.4 148.056 124.509 152.273 128.727C156.491 132.944 158.6 138.035 158.6 144C158.6 149.965 156.491 155.056 152.273 159.274Z" fill="#0D0938"/>
<rect x="147.752" y="131.625" width="3" height="32" rx="1.5" transform="rotate(45 147.752 131.625)" fill="#0D0938"/>
<rect width="3" height="32" rx="1.5" transform="matrix(-0.707107 0.707107 0.707107 0.707107 127.246 131.625)" fill="#0D0938"/>
<rect x="99" y="242" width="40" height="3" rx="1.5" fill="#0D0938"/>
<rect x="99" y="254" width="70" height="3" rx="1.5" fill="#0D0938"/>
<rect x="84" y="104" width="3" height="172" fill="#0D0938"/>
<rect x="58" y="132" width="10" height="3" fill="#0D0938"/>
<rect x="58" y="151" width="10" height="3" fill="#0D0938"/>
<rect x="58" y="170" width="10" height="3" fill="#0D0938"/>
<rect x="58" y="189" width="10" height="3" fill="#0D0938"/>
<rect x="58" y="208" width="10" height="3" fill="#0D0938"/>
<rect x="58" y="227" width="10" height="3" fill="#0D0938"/>
<rect x="58" y="246" width="10" height="3" fill="#0D0938"/>
<path fill-rule="evenodd" clip-rule="evenodd" d="M200.458 188.731C184.334 188.731 171.263 175.63 171.263 159.468C171.263 143.307 184.334 130.205 200.458 130.205C216.581 130.205 229.652 143.307 229.652 159.468C229.652 175.63 216.581 188.731 200.458 188.731ZM190.684 180.731H219.691C241.913 180.731 259.928 198.746 259.928 220.968V254.794C259.928 258.335 257.057 261.205 253.516 261.205H156.859C153.318 261.205 150.447 258.335 150.447 254.794V220.968C150.447 198.746 168.462 180.731 190.684 180.731Z" fill="#F8F8F8"/>
<path opacity="0.7" fill-rule="evenodd" clip-rule="evenodd" d="M212.55 183.119C226.633 183.119 238.05 171.676 238.05 157.56C238.05 143.443 226.633 132 212.55 132C198.467 132 187.05 143.443 187.05 157.56C187.05 171.676 198.467 183.119 212.55 183.119ZM213.188 183.12C186.781 183.12 165.375 204.526 165.375 230.932V250.463C165.375 252.09 166.694 253.409 168.321 253.409H258.054C259.681 253.409 261 252.09 261 250.463V230.932C261 204.526 239.594 183.12 213.188 183.12Z" fill="#397DFF"/>
<path fill-rule="evenodd" clip-rule="evenodd" d="M214.977 184.311C223.66 180.235 229.675 171.397 229.675 161.152C229.675 147.035 218.258 135.592 204.175 135.592C190.092 135.592 178.675 147.035 178.675 161.152C178.675 171.397 184.69 180.235 193.373 184.311C196.653 185.851 200.314 186.711 204.175 186.711H192.144C182.439 186.711 174.156 190.142 167.293 197.005C160.431 203.867 157 212.15 157 221.855V251.402C157 252.948 157.547 254.267 158.64 255.361C159.733 256.454 161.053 257.001 162.599 257.001H247.026C248.572 257.001 249.892 256.454 250.985 255.361C252.078 254.267 252.625 252.948 252.625 251.402V221.855C252.625 212.15 249.194 203.867 242.332 197.005C235.469 190.142 227.186 186.711 217.481 186.711H204.175C208.036 186.711 211.697 185.851 214.977 184.311ZM204.19 184.311C210.561 184.308 216 182.047 220.507 177.53C225.019 173.008 227.275 167.548 227.275 161.152C227.275 154.755 225.019 149.296 220.507 144.773C215.997 140.252 210.553 137.992 204.175 137.992C197.797 137.992 192.353 140.252 187.843 144.773C183.331 149.296 181.075 154.755 181.075 161.152C181.075 167.548 183.331 173.008 187.843 177.53C192.35 182.047 197.789 184.308 204.161 184.311H204.19ZM204.191 189.111H204.159L192.144 189.111C183.102 189.111 175.384 192.308 168.99 198.702C162.597 205.095 159.4 212.813 159.4 221.855V251.402C159.4 253.534 160.466 254.601 162.599 254.601H247.026C247.909 254.601 248.663 254.288 249.288 253.664C249.913 253.039 250.225 252.285 250.225 251.402V221.855C250.225 212.813 247.028 205.095 240.634 198.702C234.241 192.308 226.523 189.111 217.481 189.111H204.191Z" fill="#0D0938"/>
<path fill-rule="evenodd" clip-rule="evenodd" d="M194.269 187.635L194.684 188.282L203.424 201.919C203.663 202.291 204.003 202.475 204.445 202.471C204.887 202.466 205.223 202.276 205.455 201.899L213.825 188.282L214.211 187.654L216.255 188.911L207.5 203.156C206.805 204.286 205.794 204.858 204.467 204.87C203.141 204.883 202.119 204.331 201.403 203.214L192.248 188.93L194.269 187.635Z" fill="#0D0938"/>
</svg>
