<svg width="287" height="264" viewBox="0 0 287 264" fill="none" xmlns="http://www.w3.org/2000/svg">
<path opacity="0.04" fill-rule="evenodd" clip-rule="evenodd" d="M225.211 82.1946C255.823 120.054 289.994 155.52 286.693 187.49C283.457 219.396 242.62 247.807 203.531 258.551C164.377 269.229 126.97 262.239 88.9804 247.354C51.0558 232.534 12.5487 209.818 2.64688 177.459C-7.19022 145.165 11.5779 103.163 39.3419 65.9504C67.1058 28.8024 103.865 -3.62117 135.707 0.326619C167.612 4.20969 194.6 44.3994 225.211 82.1946Z" fill="#397DFF"/>
<ellipse cx="243.994" cy="107.426" rx="3" ry="3.00001" fill="#397DFF"/>
<ellipse cx="23.9941" cy="132.426" rx="5" ry="5.00001" fill="#397DFF"/>
<ellipse cx="185.994" cy="252.426" rx="5" ry="5.00001" fill="#397DFF"/>
<path fill-rule="evenodd" clip-rule="evenodd" d="M190.471 53.1938C190.471 53.1896 190.47 53.1854 190.47 53.1812C190.47 53.1769 190.469 53.1727 190.469 53.1685C190.426 52.7565 190.244 52.4199 189.922 52.1588C189.601 51.8977 189.234 51.7885 188.822 51.8313C185.248 52.202 181.894 52.982 178.757 54.1712C178.37 54.318 178.091 54.5803 177.921 54.958C177.751 55.3357 177.739 55.7182 177.886 56.1055C177.888 56.1105 177.89 56.1155 177.892 56.1205C177.894 56.1255 177.896 56.1305 177.898 56.1355C177.97 56.3147 178.074 56.4741 178.208 56.6134C178.342 56.7528 178.497 56.8622 178.673 56.9415C178.854 57.0232 179.045 57.067 179.243 57.073C179.442 57.0791 179.635 57.0468 179.821 56.9763C182.714 55.8794 185.817 55.1591 189.132 54.8153C189.329 54.7947 189.516 54.7371 189.691 54.6425C189.866 54.5478 190.016 54.4232 190.141 54.2688C190.264 54.1178 190.354 53.9494 190.411 53.7634C190.468 53.5775 190.488 53.3876 190.471 53.1938ZM197.485 53.1894C197.485 53.1926 197.485 53.1958 197.484 53.1989C197.484 53.2021 197.484 53.2052 197.484 53.2084C197.468 53.4034 197.489 53.5942 197.548 53.7807C197.607 53.9673 197.698 54.136 197.823 54.2867C197.95 54.44 198.101 54.5631 198.277 54.6562C198.453 54.7492 198.64 54.8051 198.838 54.8238C201.905 55.1134 205.116 55.6608 208.472 56.4659C208.872 56.562 209.248 56.5032 209.6 56.2896C209.952 56.076 210.177 55.7695 210.277 55.3701C210.277 55.368 210.278 55.3659 210.279 55.3637C210.279 55.3616 210.28 55.3594 210.28 55.3573C210.326 55.1639 210.334 54.9689 210.303 54.7725C210.272 54.576 210.204 54.393 210.1 54.2234C209.996 54.0538 209.864 53.9106 209.703 53.7937C209.542 53.6768 209.365 53.5951 209.171 53.5487C205.678 52.7106 202.328 52.14 199.12 51.8371C198.707 51.7982 198.341 51.9107 198.022 52.1748C197.703 52.4388 197.524 52.7771 197.485 53.1894ZM228.946 62.5505C228.944 62.5529 228.943 62.5553 228.942 62.5577C228.94 62.5601 228.939 62.5625 228.938 62.5648C228.737 62.9234 228.439 63.1595 228.044 63.2732C227.649 63.3869 227.271 63.3452 226.91 63.1483C225.734 62.5062 224.541 61.9001 223.329 61.33C221.475 60.5781 219.656 59.889 217.871 59.2626C217.684 59.1968 217.516 59.0975 217.368 58.9648C217.219 58.8321 217.102 58.6761 217.016 58.4968C216.931 58.3191 216.882 58.1318 216.871 57.935C216.859 57.7381 216.886 57.5465 216.95 57.36L216.953 57.3505C217.09 56.9597 217.345 56.6746 217.719 56.4952C218.092 56.3159 218.474 56.2948 218.865 56.432C220.707 57.0785 222.584 57.7896 224.495 58.5654C224.508 58.5705 224.52 58.5757 224.532 58.5811C224.545 58.5865 224.557 58.592 224.569 58.5978C225.847 59.1985 227.107 59.8377 228.348 60.5152C228.522 60.6105 228.672 60.7356 228.797 60.8905C228.922 61.0453 229.012 61.2182 229.068 61.409C229.124 61.5999 229.142 61.7942 229.12 61.992C229.099 62.1898 229.041 62.3759 228.946 62.5505ZM171.792 59.5301C171.905 59.6851 171.985 59.8556 172.033 60.0414C172.081 60.2273 172.093 60.4154 172.068 60.6058C172.043 60.803 171.981 60.988 171.882 61.1605C171.783 61.3331 171.654 61.4802 171.497 61.6018L171.179 61.8476C171.175 61.8501 171.172 61.8526 171.169 61.8551C171.166 61.8576 171.162 61.8601 171.159 61.8625C170.831 62.1074 170.464 62.202 170.058 62.1465C169.653 62.0909 169.325 61.9011 169.075 61.5771C168.953 61.4197 168.866 61.245 168.814 61.053C168.762 60.861 168.749 60.6664 168.774 60.4691C168.8 60.2718 168.862 60.0869 168.961 59.9143C169.06 59.7417 169.188 59.5947 169.345 59.4731L169.663 59.2273C169.991 58.9741 170.361 58.8739 170.771 58.9268C171.182 58.9796 171.514 59.1699 171.768 59.4977C171.772 59.5031 171.776 59.5085 171.78 59.5138C171.784 59.5192 171.788 59.5247 171.792 59.5301ZM234.832 66.3432C234.83 66.3453 234.829 66.3475 234.827 66.3497C234.825 66.3519 234.824 66.3541 234.822 66.3563C234.579 66.6874 234.487 67.0563 234.546 67.463C234.606 67.8696 234.8 68.1965 235.129 68.4436C237.741 70.4082 240.197 72.5509 242.497 74.8715C242.786 75.1634 243.136 75.3114 243.548 75.3154C243.959 75.3195 244.312 75.1784 244.607 74.8923C244.609 74.8904 244.611 74.8885 244.612 74.8866C244.614 74.8847 244.616 74.8828 244.618 74.8809C244.76 74.7408 244.869 74.5791 244.946 74.3957C245.022 74.2122 245.061 74.021 245.062 73.8221C245.063 73.6232 245.026 73.4317 244.951 73.2476C244.875 73.0635 244.768 72.9008 244.628 72.7596C242.225 70.3359 239.66 68.098 236.932 66.0461C236.773 65.9266 236.597 65.842 236.405 65.7923C236.212 65.7427 236.017 65.7318 235.82 65.7596C235.624 65.7875 235.439 65.852 235.268 65.9531C235.097 66.0542 234.951 66.1842 234.832 66.3432ZM249.176 80.2004C249.173 80.202 249.171 80.2037 249.169 80.2053C249.167 80.2069 249.165 80.2086 249.163 80.2102C248.834 80.4578 248.641 80.785 248.582 81.1917C248.523 81.5985 248.615 81.9672 248.859 82.298C250.802 84.9316 252.541 87.6897 254.076 90.5721C254.169 90.7477 254.293 90.8987 254.446 91.0251C254.6 91.1515 254.772 91.2438 254.962 91.3018C255.149 91.359 255.341 91.3787 255.536 91.3609C255.731 91.343 255.916 91.2889 256.09 91.1987C256.092 91.1975 256.095 91.1962 256.097 91.1949C256.1 91.1937 256.102 91.1924 256.105 91.1911C256.47 90.9964 256.713 90.701 256.834 90.3048C256.955 89.9086 256.918 89.5277 256.724 89.1621C255.12 86.1503 253.303 83.2686 251.273 80.517C251.155 80.3569 251.011 80.2255 250.841 80.1229C250.67 80.0202 250.487 79.954 250.29 79.9243C250.093 79.8946 249.898 79.9037 249.705 79.9515C249.512 79.9994 249.336 80.0823 249.176 80.2004ZM258.932 97.5926C258.929 97.5936 258.927 97.5945 258.924 97.5955C258.922 97.5964 258.919 97.5974 258.916 97.5984C258.732 97.6662 258.568 97.7663 258.423 97.8985C258.279 98.0308 258.164 98.1855 258.08 98.3626C257.995 98.5424 257.947 98.7316 257.938 98.9302C257.928 99.1289 257.956 99.3219 258.023 99.5093C259.117 102.579 259.983 105.718 260.621 108.926C260.66 109.121 260.735 109.301 260.845 109.466C260.956 109.632 261.093 109.77 261.259 109.88C261.422 109.989 261.599 110.063 261.792 110.103C261.984 110.142 262.176 110.143 262.369 110.107C262.371 110.107 262.374 110.106 262.377 110.106C262.379 110.105 262.382 110.105 262.385 110.104C262.791 110.023 263.109 109.811 263.339 109.466C263.57 109.122 263.644 108.747 263.564 108.34C262.897 104.989 261.992 101.71 260.848 98.5018C260.709 98.1117 260.453 97.8278 260.078 97.6503C259.704 97.4728 259.322 97.4535 258.932 97.5926ZM262.967 130.091C262.772 130.071 262.589 130.014 262.416 129.921C262.243 129.829 262.094 129.707 261.969 129.556C261.842 129.403 261.749 129.231 261.691 129.041C261.632 128.851 261.612 128.657 261.631 128.459C261.935 125.219 262.003 121.964 261.835 118.693C261.814 118.283 261.94 117.924 262.214 117.618C262.488 117.311 262.83 117.145 263.24 117.119C263.242 117.119 263.245 117.119 263.248 117.119C263.251 117.119 263.253 117.118 263.256 117.118C263.455 117.108 263.648 117.136 263.835 117.203C264.022 117.269 264.19 117.369 264.338 117.502C264.485 117.636 264.602 117.792 264.688 117.972C264.773 118.151 264.821 118.341 264.831 118.539C265.007 121.955 264.936 125.355 264.618 128.74C264.579 129.152 264.4 129.49 264.081 129.755C263.762 130.019 263.396 130.131 262.984 130.093C262.981 130.092 262.978 130.092 262.976 130.092C262.973 130.092 262.97 130.091 262.967 130.091ZM256.984 148.566C257.06 148.747 257.167 148.906 257.306 149.045C257.444 149.184 257.604 149.291 257.785 149.367C257.787 149.368 257.79 149.369 257.792 149.37C257.795 149.371 257.797 149.373 257.8 149.374C258.183 149.53 258.566 149.528 258.948 149.368C259.33 149.207 259.599 148.935 259.755 148.552C261.046 145.389 262.099 142.151 262.912 138.838C262.96 138.645 262.969 138.45 262.939 138.253C262.908 138.057 262.842 137.873 262.739 137.703C262.636 137.533 262.504 137.389 262.344 137.271C262.183 137.154 262.007 137.071 261.814 137.023C261.811 137.023 261.808 137.022 261.806 137.022C261.803 137.021 261.8 137.02 261.797 137.02C261.607 136.975 261.414 136.968 261.221 136.999C261.027 137.029 260.846 137.096 260.679 137.197C260.509 137.3 260.365 137.432 260.247 137.592C260.129 137.752 260.047 137.929 259.999 138.122C259.22 141.292 258.213 144.391 256.978 147.418C256.903 147.602 256.866 147.794 256.867 147.993C256.868 148.191 256.907 148.383 256.984 148.566ZM252.635 156.174C251.039 158.877 249.263 161.457 247.305 163.915C247.225 164.015 247.145 164.116 247.064 164.216C246.804 164.538 246.696 164.905 246.741 165.317C246.785 165.729 246.968 166.065 247.291 166.325C247.613 166.585 247.98 166.693 248.392 166.648C248.804 166.604 249.14 166.421 249.4 166.098C251.544 163.438 253.484 160.638 255.219 157.699C255.429 157.342 255.483 156.963 255.379 156.562C255.276 156.161 255.046 155.855 254.689 155.644C254.687 155.643 254.685 155.642 254.682 155.64C254.68 155.639 254.678 155.638 254.675 155.636C254.319 155.431 253.942 155.381 253.545 155.486C253.147 155.59 252.844 155.82 252.635 156.174Z" fill="#0D0938"/>
<rect x="60.5742" y="64.916" width="17.8898" height="4.0505" rx="2" transform="rotate(-169 60.5742 64.916)" fill="#0D0938"/>
<rect width="17.8898" height="4.0505" rx="2" transform="matrix(-0.5 -0.866025 -0.866025 0.5 75.1387 44.9395)" fill="#0D0938"/>
<rect width="17.8898" height="4.0505" rx="2" transform="matrix(-0.766044 -0.642788 -0.642788 0.766044 66.377 51.625)" fill="#0D0938"/>
<path opacity="0.7" fill-rule="evenodd" clip-rule="evenodd" d="M95.9941 46.4238C92.6804 46.4238 89.9941 49.1101 89.9941 52.4239V55.4238H73.9941C67.3667 55.4238 61.9941 60.7964 61.9941 67.4238V185.424C61.9941 192.051 67.3667 197.424 73.9941 197.424H163.994C170.622 197.424 175.994 192.051 175.994 185.424V67.4238C175.994 60.7964 170.622 55.4238 163.994 55.4238H147.994V52.4238C147.994 49.1101 145.308 46.4238 141.994 46.4238H128.994C128.994 46.4238 131.994 32.4238 118.994 32.4238C105.994 32.4238 108.994 46.4238 108.994 46.4238H95.9941Z" fill="#397DFF"/>
<path fill-rule="evenodd" clip-rule="evenodd" d="M102.994 64.4238V58.4238H83.9941C77.3667 58.4238 71.9941 63.7964 71.9941 70.4238V188.424C71.9941 195.051 77.3667 200.424 83.9941 200.424H173.994C180.622 200.424 185.994 195.051 185.994 188.424V70.4238C185.994 63.7964 180.622 58.4238 173.994 58.4238H154.994V63.4238C154.994 65.4238 151.994 66.4238 151.994 66.4238H105.994C103.994 66.4238 102.994 64.4238 102.994 64.4238ZM157.994 61.4238V63.4238C157.994 66.1987 156.31 68.1474 152.943 69.2699L152.481 69.4238H105.994C103.425 69.4238 101.53 68.2044 100.311 65.7655L99.9941 65.132V61.4238L83.9941 61.4238C81.5089 61.4238 79.3875 62.3025 77.6302 64.0599C75.8728 65.8172 74.9941 67.9386 74.9941 70.4238V188.424C74.9941 190.909 75.8728 193.031 77.6302 194.788C79.3875 196.545 81.5089 197.424 83.9941 197.424H173.994C176.479 197.424 178.601 196.545 180.358 194.788C182.115 193.031 182.994 190.909 182.994 188.424V70.4238C182.994 67.9386 182.115 65.8172 180.358 64.0599C178.601 62.3025 176.479 61.4238 173.994 61.4238H157.994Z" fill="#0D0938"/>
<path fill-rule="evenodd" clip-rule="evenodd" d="M115.937 49.4238H105.993C104.337 49.4238 102.923 50.0095 101.751 51.1809C100.58 52.3523 99.9941 53.7663 99.9941 55.4228V63.4249C99.9941 65.0815 100.58 66.4954 101.751 67.6668C102.923 68.8382 104.337 69.4239 105.993 69.4239H151.995C153.652 69.4239 155.066 68.8382 156.237 67.6668C157.408 66.4954 157.994 65.0815 157.994 63.4249V55.4228C157.994 53.7663 157.408 52.3523 156.237 51.1809C155.066 50.0095 153.652 49.4238 151.995 49.4238H138.994C138.994 49.4238 139.262 48.1753 139.291 46.4239C139.359 42.3106 138.112 35.4238 128.994 35.4238C119.876 35.4238 118.629 42.3106 118.698 46.4239C118.727 48.1753 118.994 49.4238 118.994 49.4238H115.937ZM102.994 55.4228C102.994 53.4235 103.994 52.4238 105.993 52.4238H118.994C119.823 52.4238 120.53 52.131 121.115 51.5452C121.701 50.9594 121.994 50.2523 121.994 49.4239C121.994 49.3182 121.989 49.2129 121.977 49.1078C121.966 49.0027 121.95 48.8986 121.928 48.7953C121.525 46.9158 121.559 45.0345 122.03 43.1514C122.817 39.9997 125.139 38.4238 128.994 38.4238C132.849 38.4238 135.171 39.9997 135.959 43.1514C136.429 45.0345 136.463 46.9158 136.061 48.7953C135.977 49.1843 135.972 49.5744 136.043 49.9657C136.115 50.357 136.259 50.7196 136.475 51.0536C136.692 51.3876 136.963 51.6675 137.291 51.8934C137.618 52.1193 137.977 52.2739 138.366 52.3573C138.469 52.3794 138.573 52.396 138.678 52.4072C138.783 52.4183 138.888 52.4238 138.994 52.4238H151.995C153.994 52.4238 154.994 53.4235 154.994 55.4228V63.4249C154.994 65.4242 153.994 66.4239 151.995 66.4239H105.993C103.994 66.4239 102.994 65.4242 102.994 63.4249V55.4228Z" fill="#0D0938"/>
<rect x="110.994" y="119.424" width="62" height="4.00001" rx="1.5" fill="#0D0938"/>
<path fill-rule="evenodd" clip-rule="evenodd" d="M110.994 93.9238C110.994 93.0954 111.666 92.4238 112.494 92.4238L171.494 92.4238C172.323 92.4238 172.994 93.0954 172.994 93.9238V94.9238C172.994 95.7523 172.323 96.4238 171.494 96.4238H112.494C111.666 96.4238 110.994 95.7523 110.994 94.9238V93.9238Z" fill="#0D0938"/>
<rect x="110.994" y="145.424" width="62" height="4.00001" rx="1.5" fill="#0D0938"/>
<path fill-rule="evenodd" clip-rule="evenodd" d="M88.0865 93.6458L88.5548 94.1433L91.0269 96.7699L96.2801 91.5166L98.4336 89.3632C98.7265 89.0703 99.08 88.9238 99.4942 88.9238C99.9085 88.9238 100.262 89.0703 100.555 89.3632C100.848 89.6561 100.994 90.0096 100.994 90.4238C100.994 90.838 100.848 91.1916 100.555 91.4845L92.0549 99.9845C92.0496 99.9899 92.0442 99.9952 92.0387 100C92.0333 100.006 92.0278 100.011 92.0223 100.016C91.7207 100.3 91.3628 100.436 90.9488 100.423C90.5348 100.411 90.1858 100.254 89.9019 99.9519L85.9019 95.7019C85.6181 95.4002 85.4824 95.0424 85.4949 94.6284C85.5075 94.2144 85.6646 93.8654 85.9662 93.5815C86.2678 93.2976 86.6257 93.162 87.0397 93.1745C87.4537 93.1871 87.8027 93.3442 88.0865 93.6458Z" fill="#0D0938"/>
<path fill-rule="evenodd" clip-rule="evenodd" d="M88.0865 120.646L88.5548 121.143L91.0269 123.77L96.2801 118.517L98.4336 116.363C98.5742 116.223 98.7364 116.114 98.9202 116.038C99.104 115.962 99.2953 115.924 99.4942 115.924C99.6932 115.924 99.8845 115.962 100.068 116.038C100.252 116.114 100.414 116.223 100.555 116.363C100.848 116.656 100.994 117.01 100.994 117.424C100.994 117.838 100.848 118.192 100.555 118.484L92.0549 126.985C92.0496 126.99 92.0442 126.995 92.0387 127C92.0333 127.006 92.0278 127.011 92.0223 127.016C91.7207 127.3 91.3628 127.436 90.9488 127.423C90.5348 127.411 90.1858 127.254 89.9019 126.952L85.9019 122.702C85.6181 122.4 85.4824 122.042 85.4949 121.628C85.5075 121.214 85.6646 120.865 85.9662 120.582C86.2678 120.298 86.6257 120.162 87.0397 120.175C87.4537 120.187 87.8027 120.344 88.0865 120.646Z" fill="#0D0938"/>
<path fill-rule="evenodd" clip-rule="evenodd" d="M88.0865 145.646L88.5548 146.143L91.0269 148.77L96.2801 143.517L98.4336 141.363C98.5742 141.223 98.7364 141.114 98.9202 141.038C99.104 140.962 99.2953 140.924 99.4942 140.924C99.6932 140.924 99.8845 140.962 100.068 141.038C100.252 141.114 100.414 141.223 100.555 141.363C100.848 141.656 100.994 142.01 100.994 142.424C100.994 142.838 100.848 143.192 100.555 143.484L92.0549 151.985C92.0496 151.99 92.0442 151.995 92.0387 152C92.0333 152.006 92.0278 152.011 92.0223 152.016C91.7207 152.3 91.3628 152.436 90.9488 152.423C90.5348 152.411 90.1858 152.254 89.9019 151.952L85.9019 147.702C85.6181 147.4 85.4824 147.042 85.4949 146.628C85.5075 146.214 85.6646 145.865 85.9662 145.582C86.2678 145.298 86.6257 145.162 87.0397 145.175C87.4537 145.187 87.8027 145.344 88.0865 145.646Z" fill="#0D0938"/>
<ellipse cx="195.494" cy="176.924" rx="47.5" ry="47.5001" fill="#F8F8F8"/>
<ellipse opacity="0.7" cx="204.994" cy="179.424" rx="41" ry="41.0001" fill="#397DFF"/>
<path fill-rule="evenodd" clip-rule="evenodd" d="M237.994 177.424C237.994 200.068 219.638 218.424 196.994 218.424C174.35 218.424 155.994 200.068 155.994 177.424C155.994 154.78 174.35 136.424 196.994 136.424C219.638 136.424 237.994 154.78 237.994 177.424ZM223.864 204.294C216.444 211.714 207.488 215.424 196.994 215.424C186.501 215.424 177.544 211.714 170.124 204.294C162.704 196.874 158.994 187.917 158.994 177.424C158.994 166.93 162.704 157.974 170.124 150.554C177.544 143.134 186.501 139.424 196.994 139.424C207.488 139.424 216.444 143.134 223.864 150.554C231.284 157.974 234.994 166.93 234.994 177.424C234.994 187.917 231.284 196.874 223.864 204.294Z" fill="#0D0938"/>
<path fill-rule="evenodd" clip-rule="evenodd" d="M193.687 184.576C193.687 184.576 194.006 180.373 194.519 179.012C195.033 177.651 196.081 176.142 197.664 174.485L201.702 170.49C203.428 168.615 204.291 166.603 204.291 164.453C204.291 162.381 203.726 160.758 202.596 159.585C201.465 158.411 198.969 157.824 197.664 157.824C196.358 157.824 194.519 157.824 192.608 159.422C190.697 161.02 190.697 163.713 190.697 163.713C190.697 163.713 190.066 166.363 187.519 166.363C184.973 166.363 184.994 163.713 184.994 163.713C185.035 160.517 186.222 157.937 188.555 155.974C190.887 154.011 193.923 152.424 197.664 152.424C201.548 152.424 204.574 154.031 206.742 156.034C208.91 158.036 209.994 160.783 209.994 164.275C209.994 167.728 208.329 171.131 205 174.485L201.64 177.681C200.14 179.279 199.39 181.577 199.39 184.576C199.39 184.576 198.883 187.606 196.358 187.606C193.833 187.606 193.687 184.576 193.687 184.576ZM193.44 196.346C193.44 195.459 193.723 194.714 194.288 194.112C194.853 193.51 195.691 193.209 196.8 193.209C197.91 193.209 198.753 193.51 199.328 194.112C199.903 194.714 200.191 195.459 200.191 196.346C200.191 197.234 199.903 197.969 199.328 198.551C198.753 199.133 197.91 199.424 196.8 199.424C195.691 199.424 194.853 199.133 194.288 198.551C193.723 197.969 193.44 197.234 193.44 196.346Z" fill="#0D0938"/>
</svg>
