<svg width="24" height="24" viewBox="0 0 24 24" fill="none" xmlns="http://www.w3.org/2000/svg">
<path d="M4 7.14123C4 11.3818 4 18 4 18H20C20 18 20 11.3818 20 7.14123C17.3503 9.16751 13.2149 12.3298 13.2149 12.3298C12.4978 12.8782 11.5022 12.8782 10.7851 12.3298C10.7851 12.3298 6.64975 9.16751 4 7.14123Z" fill="#7C7B7B"/>
<path d="M18.1999 6C13.3575 6 10.6425 6 5.80007 6C8.22129 7.85152 12 10.7411 12 10.7411C12 10.7411 15.7787 7.85152 18.1999 6Z" fill="#7C7B7B"/>
<path fill-rule="evenodd" clip-rule="evenodd" d="M2 6C2 4.89543 2.89543 4 4 4H20C21.1046 4 22 4.89543 22 6V18C22 19.1046 21.1046 20 20 20H4C2.89543 20 2 19.1046 2 18V6ZM5.80007 6C10.6425 6 13.3575 6 18.1999 6C18.621 5.71634 19.0789 5.71634 19.5 6C19.9036 6.27185 20.0737 6.66027 20 7.14123C20 11.3818 20 18 20 18H4C4 18 4 11.3818 4 7.14123C3.92627 6.66027 4.09645 6.27185 4.5 6C4.92108 5.71634 5.37899 5.71634 5.80007 6Z" fill="#7C7B7B"/>
</svg>
