<svg width="283" height="287" viewBox="0 0 283 287" fill="none" xmlns="http://www.w3.org/2000/svg">
<path opacity="0.04" fill-rule="evenodd" clip-rule="evenodd" d="M82.1947 61.7039C120.054 31.0919 155.52 -3.08014 187.49 0.221858C219.396 3.45786 247.807 44.2939 258.551 83.3839C269.229 122.538 262.239 159.945 247.354 197.934C232.534 235.859 209.818 274.366 177.459 284.268C145.165 294.105 103.163 275.337 65.9497 247.573C28.8017 219.809 -3.62134 183.049 0.326658 151.208C4.20966 119.302 44.3987 92.3149 82.1947 61.7039Z" fill="#397DFF"/>
<path d="M203.391 64.0449C205.047 64.0449 206.391 62.7018 206.391 61.0449C206.391 59.3881 205.047 58.0449 203.391 58.0449C201.734 58.0449 200.391 59.3881 200.391 61.0449C200.391 62.7018 201.734 64.0449 203.391 64.0449Z" fill="#397DFF"/>
<path d="M158.391 266.045C161.152 266.045 163.391 263.806 163.391 261.045C163.391 258.283 161.152 256.045 158.391 256.045C155.629 256.045 153.391 258.283 153.391 261.045C153.391 263.806 155.629 266.045 158.391 266.045Z" fill="#397DFF"/>
<path d="M68.3906 124.045C71.152 124.045 73.3906 121.806 73.3906 119.045C73.3906 116.283 71.152 114.045 68.3906 114.045C65.6292 114.045 63.3906 116.283 63.3906 119.045C63.3906 121.806 65.6292 124.045 68.3906 124.045Z" fill="url(#paint0_linear_33669_12100)"/>
<path fill-rule="evenodd" clip-rule="evenodd" d="M105.286 74.9248L105.123 74.9008C101.959 74.4381 98.7624 74.2441 95.5661 74.3208C95.3692 74.326 95.1734 74.2916 94.9901 74.2198C94.8061 74.1496 94.6381 74.0432 94.4961 73.9068C94.2116 73.6377 94.0448 73.2672 94.0321 72.8758V72.8668L94.0311 72.8568C94.0211 72.4428 94.1591 72.0858 94.4451 71.7858C94.7311 71.4858 95.0811 71.3318 95.4951 71.3218C98.9291 71.2398 102.34 71.4518 105.729 71.9578C106.139 72.0188 106.467 72.2168 106.714 72.5488C106.96 72.8818 107.053 73.2538 106.991 73.6628C106.963 73.8581 106.896 74.0458 106.795 74.215C106.693 74.3841 106.559 74.5313 106.4 74.6478C106.242 74.7655 106.062 74.8506 105.871 74.8982C105.68 74.9457 105.481 74.9548 105.286 74.9248ZM74.5941 77.2198L74.5981 77.2288L74.6021 77.2378C74.7541 77.6188 75.0181 77.8918 75.3941 78.0558C75.7701 78.2208 76.1491 78.2288 76.5321 78.0818C79.5679 76.9157 82.6984 76.0131 85.8891 75.3838C86.0825 75.346 86.2664 75.2698 86.4301 75.1598C86.5934 75.0523 86.7338 74.9135 86.8433 74.7515C86.9528 74.5895 87.0292 74.4075 87.0681 74.2158C87.1071 74.0248 87.1091 73.8328 87.0741 73.6398L87.0721 73.6308L87.0701 73.6208C87.0349 73.4267 86.9603 73.2418 86.8509 73.0775C86.7415 72.9133 86.5997 72.7732 86.4341 72.6658C86.2718 72.5532 86.0881 72.475 85.8944 72.4363C85.7007 72.3976 85.5011 72.3992 85.3081 72.4408C81.9489 73.1032 78.6531 74.0537 75.4571 75.2818C75.2727 75.3516 75.104 75.4573 74.961 75.593C74.818 75.7286 74.7034 75.8914 74.6241 76.0718C74.5432 76.2516 74.4989 76.4457 74.4938 76.6428C74.4886 76.8399 74.5227 77.0361 74.5941 77.2198ZM57.7921 87.8868L57.7981 87.8938L57.8051 87.9008C58.0771 88.2078 58.4181 88.3748 58.8271 88.4018C59.2371 88.4288 59.5971 88.3088 59.9071 88.0398C62.3638 85.9151 65.0004 84.0076 67.7871 82.3388C68.1401 82.1278 68.3671 81.8238 68.4701 81.4268C68.5721 81.0298 68.5201 80.6528 68.3141 80.2988L68.3091 80.2898L68.3041 80.2818C68.2033 80.1125 68.07 79.9648 67.9117 79.8473C67.7534 79.7299 67.5734 79.6451 67.3821 79.5978C67.1914 79.5488 66.9927 79.539 66.7981 79.5688C66.6027 79.5968 66.415 79.6638 66.2461 79.7658C63.3105 81.523 60.5334 83.5323 57.9461 85.7708C57.7945 85.8975 57.6705 86.0539 57.5818 86.2304C57.493 86.4068 57.4414 86.5996 57.4301 86.7968C57.4001 87.2098 57.5201 87.5728 57.7921 87.8868ZM45.5501 103.64L45.5581 103.645L45.5671 103.65C45.9271 103.847 46.3041 103.89 46.6991 103.778C47.0931 103.666 47.3921 103.431 47.5941 103.074C49.2006 100.237 51.0473 97.5432 53.1141 95.0218C53.2394 94.8698 53.3333 94.6943 53.3903 94.5056C53.4473 94.317 53.4663 94.1189 53.4461 93.9228C53.4087 93.5335 53.2194 93.1745 52.9191 92.9238L52.9121 92.9178L52.9041 92.9108C52.7532 92.7835 52.5779 92.6883 52.3889 92.6312C52.1999 92.5741 52.0012 92.5563 51.8051 92.5788C51.3931 92.6198 51.0551 92.8008 50.7931 93.1218C48.6179 95.7754 46.6741 98.6104 44.9831 101.596C44.8856 101.767 44.8234 101.956 44.8001 102.152C44.7622 102.446 44.8134 102.746 44.9471 103.011C45.0807 103.276 45.2907 103.495 45.5501 103.64ZM39.3611 122.575L39.3711 122.577L39.3811 122.578C39.7861 122.642 40.1551 122.554 40.4891 122.314C40.8221 122.075 41.0231 121.753 41.0921 121.348C41.6362 118.145 42.4573 114.995 43.5461 111.934C43.6128 111.748 43.6421 111.551 43.6321 111.355C43.6221 111.158 43.5732 110.965 43.4881 110.787C43.3203 110.434 43.021 110.16 42.6541 110.025L42.6441 110.021C42.458 109.95 42.2592 109.918 42.0603 109.928C41.8614 109.937 41.6666 109.988 41.4881 110.076C41.1151 110.254 40.8581 110.538 40.7201 110.929C39.5728 114.153 38.7075 117.471 38.1341 120.845C38.0641 121.253 38.1501 121.626 38.3891 121.964C38.6291 122.302 38.9531 122.506 39.3611 122.575ZM38.8051 129.551H38.7851C38.3874 129.553 38.0067 129.712 37.7261 129.994C37.5867 130.133 37.4765 130.299 37.4018 130.481C37.3271 130.663 37.2895 130.859 37.2911 131.056C37.3021 134.484 37.6061 137.887 38.2021 141.265C38.2741 141.673 38.4801 141.996 38.8191 142.233C39.1591 142.471 39.5321 142.554 39.9391 142.482L39.9491 142.48L39.9591 142.478C40.3621 142.402 40.6801 142.195 40.9131 141.857C41.0271 141.698 41.1075 141.517 41.1493 141.325C41.1911 141.134 41.1934 140.936 41.1561 140.744C40.5908 137.542 40.3014 134.297 40.2911 131.046C40.2932 130.85 40.2556 130.656 40.1805 130.475C40.1054 130.294 39.9943 130.13 39.8541 129.994C39.7181 129.853 39.555 129.741 39.3745 129.665C39.194 129.588 39 129.55 38.8041 129.551H38.8051ZM47.3661 160.968L47.3611 160.972C47.1903 161.073 47.0005 161.138 46.8035 161.163C46.6065 161.187 46.4065 161.171 46.2161 161.115C45.8161 161.005 45.5151 160.769 45.3111 160.409C43.9738 158.037 42.7327 155.612 41.5911 153.14L41.5761 153.102C41.3195 152.462 41.0741 151.817 40.8401 151.169C40.7001 150.779 40.7171 150.397 40.8931 150.022C41.0701 149.647 41.3531 149.389 41.7431 149.249L41.7511 149.246L41.7611 149.242C41.9451 149.175 42.1407 149.146 42.3361 149.157C42.5316 149.168 42.7227 149.219 42.8981 149.306C43.2681 149.483 43.5231 149.765 43.6621 150.151C43.8801 150.754 44.1081 151.354 44.3461 151.949C45.4441 154.323 46.6368 156.652 47.9211 158.931C48.0188 159.102 48.0816 159.291 48.1056 159.486C48.1297 159.682 48.1145 159.88 48.0611 160.07C48.0095 160.258 47.9215 160.433 47.8021 160.587C47.6821 160.743 47.5371 160.87 47.3661 160.968ZM53.3191 167.153C53.202 166.996 53.0542 166.864 52.8847 166.766C52.7152 166.668 52.5275 166.605 52.3331 166.582C52.1394 166.552 51.9418 166.562 51.7521 166.611C51.5625 166.66 51.3848 166.748 51.2301 166.868L51.2231 166.873L51.2151 166.879C51.0567 166.997 50.9242 167.146 50.8256 167.317C50.7271 167.488 50.6646 167.678 50.6421 167.874C50.5891 168.284 50.6881 168.654 50.9411 168.982C53.1691 171.88 55.5061 174.377 57.9511 176.474C58.1002 176.603 58.2734 176.701 58.4607 176.762C58.648 176.823 58.8456 176.847 59.0421 176.831C59.2434 176.816 59.4396 176.76 59.6188 176.667C59.798 176.574 59.9566 176.446 60.0851 176.29C60.3451 175.975 60.4571 175.614 60.4221 175.207C60.4083 175.012 60.3552 174.823 60.2662 174.649C60.1772 174.475 60.054 174.322 59.9041 174.197C57.6161 172.234 55.4211 169.886 53.3191 167.153ZM67.9121 179.328C67.7357 179.246 67.5446 179.202 67.3504 179.196C67.1562 179.19 66.9629 179.224 66.7821 179.295C66.5989 179.36 66.4307 179.461 66.2876 179.592C66.1445 179.724 66.0293 179.883 65.9491 180.06L65.9411 180.077L65.9341 180.094C65.8514 180.273 65.8064 180.468 65.8017 180.665C65.7971 180.862 65.8329 181.059 65.9071 181.242C66.0571 181.628 66.3211 181.905 66.7001 182.072C69.7949 183.443 73.0957 184.291 76.4681 184.583C76.6643 184.601 76.8622 184.579 77.0502 184.52C77.2381 184.461 77.4125 184.365 77.5631 184.238C77.7143 184.112 77.839 183.957 77.93 183.782C78.021 183.607 78.0764 183.416 78.0931 183.22C78.128 182.867 78.033 182.514 77.8261 182.226C77.7145 182.063 77.571 181.924 77.4042 181.819C77.2375 181.713 77.051 181.642 76.8561 181.611C76.8139 181.604 76.7716 181.599 76.7291 181.595C73.685 181.332 70.7056 180.566 67.9121 179.328Z" fill="#0D0938"/>
<path d="M270.656 82.1671L261.657 92.8917C260.947 93.7379 259.685 93.8483 258.839 93.1383C257.993 92.4282 257.882 91.1667 258.592 90.3206L267.592 79.596C268.302 78.7498 269.563 78.6394 270.409 79.3495C271.255 80.0595 271.366 81.321 270.656 82.1671Z" fill="#0D0938"/>
<path d="M280.751 95.0938L268.627 102.094C267.67 102.646 266.447 102.318 265.895 101.362C265.342 100.405 265.67 99.1819 266.627 98.6296L278.751 91.6296C279.708 91.0774 280.931 91.4051 281.483 92.3617C282.035 93.3183 281.708 94.5415 280.751 95.0938Z" fill="#0D0938"/>
<path d="M250.356 73.0674L247.684 86.8102C247.474 87.8945 248.182 88.9443 249.266 89.1551C250.35 89.3658 251.4 88.6577 251.611 87.5734L254.282 73.8306C254.493 72.7464 253.785 71.6965 252.701 71.4858C251.616 71.275 250.566 71.9831 250.356 73.0674Z" fill="#0D0938"/>
<path opacity="0.7" d="M251.856 104.482L125.931 68.3736C120.622 66.8513 115.084 69.9209 113.562 75.2298L90.1328 156.937C88.6105 162.246 91.6802 167.784 96.9891 169.306L222.914 205.415C228.223 206.937 233.761 203.867 235.283 198.558L258.713 116.851C260.235 111.542 257.165 106.004 251.856 104.482Z" fill="#397DFF"/>
<path fill-rule="evenodd" clip-rule="evenodd" d="M241.863 112.484L115.936 76.3746C113.282 75.6136 110.747 75.9026 108.332 77.2406C105.917 78.5796 104.329 80.5756 103.568 83.2296L80.1378 164.94C79.3778 167.594 79.6658 170.128 81.0048 172.543C82.3428 174.958 84.3398 176.546 86.9938 177.307L212.921 213.416C215.575 214.177 218.11 213.889 220.525 212.55C222.94 211.211 224.528 209.215 225.289 206.561L248.719 124.852C249.48 122.197 249.191 119.663 247.852 117.248C246.514 114.833 244.517 113.245 241.863 112.484ZM109.787 79.8646C111.477 78.9276 113.252 78.7256 115.109 79.2586L241.037 115.368C242.894 115.901 244.292 117.012 245.229 118.703C246.166 120.393 246.368 122.167 245.835 124.025L222.406 205.734C221.873 207.592 220.761 208.99 219.071 209.927C217.38 210.864 215.606 211.066 213.748 210.533L87.8208 174.424C85.9628 173.891 84.5658 172.78 83.6288 171.089C82.6918 169.399 82.4888 167.625 83.0228 165.767L106.452 84.0576C106.985 82.1996 108.097 80.8016 109.787 79.8646Z" fill="#0D0938"/>
<path fill-rule="evenodd" clip-rule="evenodd" d="M239.22 147.095L202.691 136.62C197.648 135.174 192.832 135.723 188.243 138.266C183.655 140.81 180.637 144.603 179.191 149.646V149.648C177.745 154.692 178.293 159.507 180.837 164.096C183.38 168.685 187.174 171.702 192.217 173.148L231.63 184.45L242.104 147.922L239.22 147.095ZM238.394 149.979L201.865 139.504C197.618 138.287 193.562 138.749 189.698 140.89C185.834 143.032 183.293 146.227 182.076 150.474L182.075 150.475C180.857 154.722 181.319 158.778 183.461 162.642C185.603 166.506 188.798 169.047 193.044 170.265L229.573 180.739L238.394 149.979Z" fill="#0D0938"/>
<path fill-rule="evenodd" clip-rule="evenodd" d="M195.249 166.216C192.196 165.341 189.9 163.514 188.361 160.737C186.821 157.959 186.489 155.044 187.364 151.992C188.24 148.939 190.066 146.643 192.844 145.103C195.621 143.564 198.536 143.232 201.589 144.107C204.641 144.982 206.937 146.809 208.477 149.586C210.017 152.364 210.349 155.279 209.473 158.331C208.598 161.384 206.772 163.68 203.994 165.22C201.217 166.759 198.302 167.091 195.249 166.216ZM196.076 163.332C198.332 163.979 200.486 163.733 202.539 162.595C204.592 161.457 205.942 159.76 206.589 157.504C207.236 155.248 206.991 153.093 205.853 151.04C204.715 148.987 203.018 147.637 200.761 146.99C198.505 146.343 196.35 146.589 194.298 147.727C192.245 148.865 190.895 150.562 190.248 152.818C189.601 155.075 189.846 157.229 190.984 159.282C192.122 161.335 193.819 162.685 196.076 163.332Z" fill="#0D0938"/>
<path d="M116.47 92.6516C116.699 91.8553 116.238 91.0246 115.442 90.7963C114.646 90.5679 113.815 91.0284 113.587 91.8247L92.9137 163.919C92.6854 164.716 93.1458 165.546 93.9422 165.775C94.7385 166.003 95.5692 165.543 95.7975 164.746L116.47 92.6516Z" fill="#0D0938"/>
<path fill-rule="evenodd" clip-rule="evenodd" d="M175.126 97.7757L173.325 97.9777L162.107 99.2317C161.109 99.3437 160.308 99.7997 159.703 100.602C159.098 101.404 158.879 102.3 159.046 103.29L160.404 111.354L161.78 119.523C162.319 122.728 161.126 125.038 158.201 126.453L138.627 135.924C138.451 136.013 138.258 136.065 138.061 136.076C137.863 136.088 137.666 136.059 137.48 135.991C137.293 135.929 137.12 135.829 136.973 135.697C136.825 135.566 136.706 135.406 136.623 135.227C136.534 135.05 136.483 134.858 136.471 134.661C136.46 134.464 136.489 134.266 136.556 134.081C136.693 133.69 136.947 133.404 137.32 133.224L140.996 131.445L156.895 123.752C158.47 122.99 159.112 121.747 158.821 120.022L157.813 114.036L156.087 103.789C155.777 101.949 156.184 100.285 157.308 98.7947C158.431 97.3057 159.92 96.4577 161.774 96.2507L174.793 94.7947C174.991 94.7727 175.185 94.7887 175.376 94.8447C175.662 94.9256 175.917 95.0902 176.108 95.3172C176.3 95.5443 176.419 95.8234 176.45 96.1187C176.496 96.5307 176.39 96.8977 176.132 97.2217C176.011 97.3777 175.859 97.5073 175.686 97.6026C175.513 97.6979 175.323 97.7567 175.126 97.7757Z" fill="#0D0938"/>
<path d="M139.391 161.045H47.3906C44.0769 161.045 41.3906 163.731 41.3906 167.045V227.045C41.3906 230.359 44.0769 233.045 47.3906 233.045H139.391C142.704 233.045 145.391 230.359 145.391 227.045V167.045C145.391 163.731 142.704 161.045 139.391 161.045Z" fill="#F8F8F8"/>
<path opacity="0.7" d="M125.391 175.045H52.3906C49.0769 175.045 46.3906 177.731 46.3906 181.045V224.045C46.3906 227.359 49.0769 230.045 52.3906 230.045H125.391C128.704 230.045 131.391 227.359 131.391 224.045V181.045C131.391 177.731 128.704 175.045 125.391 175.045Z" fill="#397DFF"/>
<path fill-rule="evenodd" clip-rule="evenodd" d="M134.392 167.045H61.3896C59.7326 167.045 58.3186 167.631 57.1476 168.802C55.9756 169.974 55.3906 171.388 55.3906 173.044V216.046C55.3906 217.703 55.9756 219.117 57.1476 220.288C58.3186 221.459 59.7326 222.045 61.3896 222.045H134.392C136.048 222.045 137.462 221.459 138.634 220.288C139.805 219.117 140.391 217.703 140.391 216.046V173.044C140.391 171.388 139.805 169.974 138.634 168.802C137.462 167.631 136.048 167.045 134.392 167.045ZM58.3906 173.044C58.3906 171.045 59.3906 170.045 61.3896 170.045H134.392C136.391 170.045 137.391 171.045 137.391 173.044V216.046C137.391 218.045 136.391 219.045 134.392 219.045H61.3896C59.3896 219.045 58.3896 218.045 58.3896 216.046V173.044H58.3906Z" fill="#0D0938"/>
<path fill-rule="evenodd" clip-rule="evenodd" d="M80.3906 175.545C78.9947 175.534 77.6188 175.877 76.3906 176.54C75.1624 175.877 73.7865 175.535 72.3906 175.545C70.0426 175.545 68.0396 176.375 66.3806 178.035C64.7206 179.694 63.8906 181.698 63.8906 184.045C63.8906 186.392 64.7206 188.396 66.3806 190.056C68.0396 191.715 70.0426 192.545 72.3906 192.545C73.7865 192.556 75.1626 192.214 76.3906 191.55C77.6187 192.214 78.9947 192.556 80.3906 192.545C82.7376 192.545 84.7406 191.715 86.4006 190.056C88.0606 188.396 88.8906 186.392 88.8906 184.045C88.8906 181.698 88.0606 179.694 86.4006 178.035C84.7406 176.375 82.7376 175.545 80.3906 175.545ZM75.5326 188.56L76.3906 187.962L77.2486 188.56C78.1668 189.21 79.2659 189.554 80.3906 189.545C81.9086 189.545 83.2056 189.008 84.2796 187.934C85.3536 186.86 85.8906 185.564 85.8906 184.045C85.8906 182.526 85.3536 181.23 84.2796 180.156C83.2056 179.082 81.9096 178.545 80.3896 178.545C79.2366 178.545 78.1896 178.873 77.2486 179.53L76.3906 180.129L75.5326 179.53C74.6144 178.881 73.5153 178.536 72.3906 178.545C70.8706 178.545 69.5746 179.082 68.5006 180.156C67.4276 181.23 66.8906 182.526 66.8906 184.045C66.8906 185.564 67.4276 186.86 68.5006 187.934C69.5756 189.008 70.8706 189.545 72.3906 189.545C73.5436 189.545 74.5906 189.217 75.5326 188.56Z" fill="#0D0938"/>
<path d="M129.891 205.045H85.8906C85.0622 205.045 84.3906 205.716 84.3906 206.545C84.3906 207.373 85.0622 208.045 85.8906 208.045H129.891C130.719 208.045 131.391 207.373 131.391 206.545C131.391 205.716 130.719 205.045 129.891 205.045Z" fill="#0D0938"/>
<path d="M129.891 211.045H102.891C102.062 211.045 101.391 211.716 101.391 212.545C101.391 213.373 102.062 214.045 102.891 214.045H129.891C130.719 214.045 131.391 213.373 131.391 212.545C131.391 211.716 130.719 211.045 129.891 211.045Z" fill="#0D0938"/>
<defs>
<linearGradient id="paint0_linear_33669_12100" x1="63.1836" y1="114.045" x2="73.7349" y2="114.07" gradientUnits="userSpaceOnUse">
<stop stop-color="#1565FF"/>
<stop offset="1" stop-color="#33C1FF"/>
</linearGradient>
</defs>
</svg>
