<svg width="76" height="76" viewBox="0 0 76 76" fill="none" xmlns="http://www.w3.org/2000/svg">
<path d="M66.7213 16.5623C61.6229 16.0557 56.5246 15.6757 51.3946 15.3907V15.359L50.6979 11.2423C50.2229 8.32898 49.5263 3.95898 42.1163 3.95898H33.8196C26.4413 3.95898 25.7446 8.13898 25.2379 11.2107L24.5729 15.264C21.6279 15.454 18.6829 15.644 15.7379 15.929L9.27794 16.5623C7.94794 16.689 6.99794 17.8607 7.1246 19.159C7.25127 20.4573 8.39127 21.4073 9.72127 21.2806L16.1813 20.6473C32.7746 19.0007 49.4946 19.634 66.2779 21.3123C66.3729 21.3123 66.4363 21.3123 66.5313 21.3123C67.7346 21.3123 68.7796 20.394 68.9063 19.159C69.0013 17.8607 68.0513 16.689 66.7213 16.5623Z" fill="#FF726D"/>
<path d="M60.8945 25.776C60.1345 24.9844 59.0895 24.541 58.0129 24.541H17.9862C16.9095 24.541 15.8329 24.9844 15.1045 25.776C14.3762 26.5677 13.9645 27.6443 14.0279 28.7527L15.9912 61.2427C16.3395 66.056 16.7829 72.0727 27.8345 72.0727H48.1645C59.2162 72.0727 59.6595 66.0877 60.0079 61.2427L61.9712 28.7843C62.0345 27.6443 61.6229 26.5677 60.8945 25.776ZM43.2562 56.2077H32.7112C31.4129 56.2077 30.3362 55.131 30.3362 53.8327C30.3362 52.5343 31.4129 51.4577 32.7112 51.4577H43.2562C44.5545 51.4577 45.6312 52.5343 45.6312 53.8327C45.6312 55.131 44.5545 56.2077 43.2562 56.2077ZM45.9162 43.541H30.0829C28.7845 43.541 27.7079 42.4643 27.7079 41.166C27.7079 39.8677 28.7845 38.791 30.0829 38.791H45.9162C47.2145 38.791 48.2912 39.8677 48.2912 41.166C48.2912 42.4643 47.2145 43.541 45.9162 43.541Z" fill="#FF726D"/>
</svg>
