<svg width="320" height="350" viewBox="0 0 320 350" fill="none" xmlns="http://www.w3.org/2000/svg">
<path opacity="0.04" fill-rule="evenodd" clip-rule="evenodd" d="M242.211 125.195C272.823 163.054 306.994 198.52 303.693 230.49C300.457 262.396 259.62 290.807 220.531 301.551C181.377 312.229 143.97 305.239 105.98 290.354C68.0558 275.534 29.5487 252.818 19.6469 220.459C9.80978 188.165 28.5779 146.163 56.3419 108.95C84.1058 71.8024 120.865 39.3788 152.707 43.3266C184.612 47.2097 211.6 87.3994 242.211 125.195Z" fill="#397DFF"/>
<path d="M123.988 73.4199C123.988 75.0768 122.645 76.4199 120.988 76.4199C119.331 76.4199 117.988 75.0768 117.988 73.4199C117.988 71.7631 119.331 70.4199 120.988 70.4199C122.645 70.4199 123.988 71.7631 123.988 73.4199Z" fill="#397DFF"/>
<path d="M162.988 268.42C162.988 271.181 160.75 273.42 157.988 273.42C155.227 273.42 152.988 271.181 152.988 268.42C152.988 265.658 155.227 263.42 157.988 263.42C160.75 263.42 162.988 265.658 162.988 268.42Z" fill="#397DFF"/>
<path d="M299.988 219.42C299.988 222.181 297.75 224.42 294.988 224.42C292.227 224.42 289.988 222.181 289.988 219.42C289.988 216.658 292.227 214.42 294.988 214.42C297.75 214.42 299.988 216.658 299.988 219.42Z" fill="#397DFF"/>
<path fill-rule="evenodd" clip-rule="evenodd" d="M96.317 94.1007C97.8586 93.9809 99.4165 93.9199 100.988 93.9199C102.56 93.9199 104.118 93.9809 105.66 94.1007C106.486 94.1648 107.103 94.8864 107.039 95.7123C106.975 96.5383 106.253 97.1558 105.427 97.0917C103.963 96.9779 102.482 96.9199 100.988 96.9199C99.4941 96.9199 98.0138 96.9779 96.5493 97.0917C95.7234 97.1558 95.0018 96.5383 94.9377 95.7123C94.8735 94.8864 95.491 94.1648 96.317 94.1007ZM88.9014 96.6612C89.0942 97.4669 88.5973 98.2763 87.7916 98.469C84.8879 99.1638 82.0714 100.083 79.3612 101.207C78.5959 101.524 77.7183 101.161 77.401 100.396C77.0837 99.6303 77.4468 98.7527 78.212 98.4354C81.0671 97.2514 84.0345 96.2833 87.0936 95.5514C87.8993 95.3586 88.7087 95.8555 88.9014 96.6612ZM113.075 96.6612C113.268 95.8555 114.077 95.3586 114.883 95.5514C117.942 96.2833 120.909 97.2514 123.765 98.4354C124.53 98.7527 124.893 99.6303 124.576 100.396C124.258 101.161 123.381 101.524 122.615 101.207C119.905 100.083 117.089 99.1638 114.185 98.4691C113.379 98.2763 112.882 97.4669 113.075 96.6612ZM71.958 103.174C72.3916 103.88 72.1707 104.804 71.4648 105.238C68.9364 106.79 66.5395 108.536 64.2946 110.455C63.6649 110.994 62.718 110.92 62.1797 110.29C61.6414 109.66 61.7155 108.713 62.3452 108.175C64.7086 106.155 67.2324 104.316 69.8949 102.681C70.6008 102.248 71.5245 102.468 71.958 103.174ZM130.019 103.174C130.452 102.468 131.376 102.248 132.082 102.681C134.744 104.316 137.268 106.155 139.631 108.175C140.261 108.713 140.335 109.66 139.797 110.29C139.259 110.92 138.312 110.994 137.682 110.455C135.437 108.536 133.04 106.79 130.512 105.238C129.806 104.804 129.585 103.88 130.019 103.174ZM57.8584 114.611C58.4881 115.15 58.5621 116.097 58.0238 116.726C56.1047 118.971 54.3585 121.368 52.8059 123.896C52.3724 124.602 51.4487 124.823 50.7427 124.39C50.0368 123.956 49.8159 123.032 50.2495 122.327C51.8845 119.664 53.7231 117.14 55.7435 114.777C56.2818 114.147 57.2287 114.073 57.8584 114.611ZM144.118 114.611C144.748 114.073 145.695 114.147 146.233 114.777C148.253 117.14 150.092 119.664 151.727 122.327C152.161 123.032 151.94 123.956 151.234 124.39C150.528 124.823 149.604 124.602 149.171 123.896C147.618 121.368 145.872 118.971 143.953 116.726C143.414 116.097 143.489 115.15 144.118 114.611ZM47.9639 129.833C48.7292 130.15 49.0923 131.028 48.7749 131.793C47.6511 134.503 46.7321 137.32 46.0374 140.223C45.8446 141.029 45.0352 141.526 44.2296 141.333C43.4239 141.14 42.927 140.331 43.1198 139.525C43.8517 136.466 44.8198 133.499 46.0038 130.644C46.3211 129.878 47.1987 129.515 47.9639 129.833ZM154.013 129.833C154.778 129.515 155.655 129.878 155.973 130.644C157.157 133.499 158.125 136.466 158.857 139.525C159.05 140.331 158.553 141.14 157.747 141.333C156.941 141.526 156.132 141.029 155.939 140.223C155.244 137.32 154.325 134.503 153.202 131.793C152.884 131.028 153.247 130.15 154.013 129.833ZM43.2807 147.369C44.1066 147.433 44.7242 148.155 44.66 148.981C44.5462 150.445 44.4883 151.926 44.4883 153.42C44.4883 154.914 44.5462 156.394 44.66 157.859C44.7242 158.685 44.1066 159.406 43.2807 159.471C42.4548 159.535 41.7332 158.917 41.669 158.091C41.5493 156.55 41.4883 154.992 41.4883 153.42C41.4883 151.848 41.5493 150.29 41.669 148.749C41.7332 147.923 42.4548 147.305 43.2807 147.369ZM158.696 147.369C159.522 147.305 160.243 147.923 160.308 148.749C160.427 150.29 160.488 151.848 160.488 153.42C160.488 154.992 160.427 156.55 160.308 158.091C160.243 158.917 159.522 159.535 158.696 159.471C157.87 159.406 157.252 158.685 157.317 157.859C157.43 156.394 157.488 154.914 157.488 153.42C157.488 151.926 157.43 150.445 157.317 148.981C157.252 148.155 157.87 147.433 158.696 147.369ZM44.2296 165.507C45.0352 165.314 45.8446 165.811 46.0374 166.617C46.7321 169.52 47.6511 172.337 48.7749 175.047C49.0923 175.812 48.7292 176.69 47.9639 177.007C47.1987 177.325 46.3211 176.961 46.0038 176.196C44.8198 173.341 43.8517 170.374 43.1198 167.315C42.927 166.509 43.4239 165.7 44.2296 165.507ZM157.747 165.507C158.553 165.7 159.05 166.509 158.857 167.315C158.125 170.374 157.157 173.341 155.973 176.196C155.655 176.961 154.778 177.325 154.013 177.007C153.247 176.69 152.884 175.812 153.202 175.047C154.325 172.337 155.244 169.52 155.939 166.617C156.132 165.811 156.941 165.314 157.747 165.507ZM50.7427 182.45C51.4487 182.017 52.3724 182.237 52.8059 182.943C54.3585 185.472 56.1047 187.869 58.0238 190.114C58.5621 190.743 58.4881 191.69 57.8584 192.228C57.2287 192.767 56.2818 192.693 55.7435 192.063C53.7231 189.7 51.8845 187.176 50.2495 184.513C49.8159 183.807 50.0368 182.884 50.7427 182.45ZM151.234 182.45C151.94 182.884 152.161 183.807 151.727 184.513C150.092 187.176 148.253 189.7 146.233 192.063C145.695 192.693 144.748 192.767 144.118 192.228C143.489 191.69 143.414 190.743 143.953 190.114C145.872 187.869 147.618 185.472 149.171 182.943C149.604 182.237 150.528 182.017 151.234 182.45ZM62.1797 196.55C62.718 195.92 63.6649 195.846 64.2946 196.384C66.5395 198.304 68.9364 200.05 71.4648 201.602C72.1707 202.036 72.3916 202.96 71.958 203.665C71.5245 204.371 70.6008 204.592 69.8949 204.159C67.2324 202.524 64.7086 200.685 62.3452 198.665C61.7155 198.126 61.6414 197.18 62.1797 196.55ZM139.797 196.55C140.335 197.18 140.261 198.126 139.631 198.665C137.268 200.685 134.744 202.524 132.082 204.159C131.376 204.592 130.452 204.371 130.019 203.665C129.585 202.96 129.806 202.036 130.512 201.602C133.04 200.05 135.437 198.304 137.682 196.384C138.312 195.846 139.259 195.92 139.797 196.55ZM77.401 206.444C77.7183 205.679 78.5959 205.316 79.3612 205.633C82.0714 206.757 84.8879 207.676 87.7916 208.371C88.5973 208.564 89.0942 209.373 88.9014 210.179C88.7086 210.984 87.8992 211.481 87.0936 211.288C84.0345 210.557 81.0671 209.588 78.212 208.404C77.4468 208.087 77.0837 207.21 77.401 206.444ZM124.576 206.444C124.893 207.21 124.53 208.087 123.765 208.404C120.909 209.588 117.942 210.557 114.883 211.288C114.077 211.481 113.268 210.984 113.075 210.179C112.882 209.373 113.379 208.564 114.185 208.371C117.089 207.676 119.905 206.757 122.615 205.633C123.381 205.316 124.258 205.679 124.576 206.444ZM94.9376 211.127C95.0018 210.302 95.7234 209.684 96.5493 209.748C98.0137 209.862 99.4941 209.92 100.988 209.92C102.482 209.92 103.963 209.862 105.427 209.748C106.253 209.684 106.975 210.302 107.039 211.128C107.103 211.953 106.486 212.675 105.66 212.739C104.118 212.859 102.56 212.92 100.988 212.92C99.4165 212.92 97.8586 212.859 96.317 212.739C95.491 212.675 94.8735 211.953 94.9376 211.127Z" fill="#0D0938"/>
<path d="M250.455 112.788C249.745 111.942 249.856 110.68 250.702 109.97L261.342 101.042C262.188 100.332 263.45 100.442 264.16 101.289L264.192 101.327C264.902 102.173 264.792 103.435 263.946 104.145L253.306 113.073C252.459 113.783 251.198 113.673 250.488 112.827L250.455 112.788Z" fill="#0D0938"/>
<path d="M242.13 105.57C241.174 105.018 240.846 103.795 241.398 102.838L248.343 90.8094C248.896 89.8528 250.119 89.525 251.075 90.0773L251.119 90.1026C252.076 90.6549 252.403 91.878 251.851 92.8346L244.906 104.864C244.354 105.82 243.131 106.148 242.174 105.596L242.13 105.57Z" fill="#0D0938"/>
<path d="M254.595 122.568C254.806 123.652 255.856 124.36 256.94 124.15L270.574 121.499C271.659 121.289 272.367 120.239 272.156 119.154L272.146 119.105C271.936 118.021 270.886 117.312 269.802 117.523L256.167 120.174C255.083 120.384 254.375 121.434 254.585 122.518L254.595 122.568Z" fill="#0D0938"/>
<path opacity="0.7" d="M97.9883 125.42C97.9883 119.897 102.465 115.42 107.988 115.42H236.988C242.511 115.42 246.988 119.897 246.988 125.42V210.42C246.988 215.943 242.511 220.42 236.988 220.42H107.988C102.465 220.42 97.9883 215.943 97.9883 210.42V125.42Z" fill="#397DFF"/>
<path fill-rule="evenodd" clip-rule="evenodd" d="M227.988 127.42H98.9883C95.1223 127.42 91.9883 130.554 91.9883 134.42V219.42C91.9883 223.286 95.1223 226.42 98.9883 226.42H227.988C231.854 226.42 234.988 223.286 234.988 219.42V134.42C234.988 130.554 231.854 127.42 227.988 127.42ZM98.9883 124.42C93.4654 124.42 88.9883 128.897 88.9883 134.42V219.42C88.9883 224.943 93.4654 229.42 98.9883 229.42H227.988C233.511 229.42 237.988 224.943 237.988 219.42V134.42C237.988 128.897 233.511 124.42 227.988 124.42H98.9883Z" fill="#0D0938"/>
<path d="M103.988 135.42C103.988 136.524 103.093 137.42 101.988 137.42C100.884 137.42 99.9883 136.524 99.9883 135.42C99.9883 134.315 100.884 133.42 101.988 133.42C103.093 133.42 103.988 134.315 103.988 135.42Z" fill="#0D0938"/>
<path d="M113.988 135.42C113.988 136.524 113.093 137.42 111.988 137.42C110.884 137.42 109.988 136.524 109.988 135.42C109.988 134.315 110.884 133.42 111.988 133.42C113.093 133.42 113.988 134.315 113.988 135.42Z" fill="#0D0938"/>
<path d="M123.988 135.42C123.988 136.524 123.093 137.42 121.988 137.42C120.884 137.42 119.988 136.524 119.988 135.42C119.988 134.315 120.884 133.42 121.988 133.42C123.093 133.42 123.988 134.315 123.988 135.42Z" fill="#0D0938"/>
<path fill-rule="evenodd" clip-rule="evenodd" d="M190.277 180.864L149.988 162.125L149.988 202.414L190.277 180.864ZM151.253 159.404C149.265 158.48 146.988 159.931 146.988 162.125V202.414C146.988 204.68 149.405 206.128 151.403 205.059L191.692 183.509C193.873 182.343 193.785 179.187 191.543 178.144L151.253 159.404Z" fill="#0D0938"/>
<path d="M140.988 135.92C140.988 135.091 141.66 134.42 142.488 134.42H216.488C217.317 134.42 217.988 135.091 217.988 135.92C217.988 136.748 217.317 137.42 216.488 137.42H142.488C141.66 137.42 140.988 136.748 140.988 135.92Z" fill="#0D0938"/>
<path d="M130.988 227.42C130.988 247.854 114.423 264.42 93.9883 264.42C73.5537 264.42 56.9883 247.854 56.9883 227.42C56.9883 206.985 73.5537 190.42 93.9883 190.42C114.423 190.42 130.988 206.985 130.988 227.42Z" fill="#F8F8F8"/>
<path d="M79.9883 197.92C79.9883 197.091 80.6599 196.42 81.4883 196.42H100.488C101.317 196.42 101.988 197.091 101.988 197.92C101.988 198.748 101.317 199.42 100.488 199.42H81.4883C80.6599 199.42 79.9883 198.748 79.9883 197.92Z" fill="#0D0938"/>
<path d="M89.9883 198.42H92.9883V204.42H89.9883V198.42Z" fill="#0D0938"/>
<path opacity="0.7" d="M112.988 232.42C112.988 247.332 100.9 259.42 85.9883 259.42C71.0766 259.42 58.9883 247.332 58.9883 232.42C58.9883 217.508 71.0766 205.42 85.9883 205.42C100.9 205.42 112.988 217.508 112.988 232.42Z" fill="#397DFF"/>
<path d="M99.5878 219.635C100.174 219.049 101.123 219.049 101.709 219.635C102.295 220.221 102.295 221.17 101.709 221.756L83.3243 240.141C82.7385 240.727 81.7888 240.727 81.203 240.141C80.6172 239.555 80.6172 238.605 81.203 238.02L99.5878 219.635Z" fill="#0D0938"/>
<path d="M81.2032 221.754C80.6175 221.168 80.6175 220.218 81.2032 219.633C81.789 219.047 82.7388 219.047 83.3246 219.633L101.709 238.017C102.295 238.603 102.295 239.553 101.709 240.139C101.124 240.725 100.174 240.725 99.588 240.139L81.2032 221.754Z" fill="#0D0938"/>
<path d="M49.9883 221.92C49.9883 221.091 50.6599 220.42 51.4883 220.42H71.4883C72.3167 220.42 72.9883 221.091 72.9883 221.92C72.9883 222.748 72.3167 223.42 71.4883 223.42H51.4883C50.6599 223.42 49.9883 222.748 49.9883 221.92Z" fill="#0D0938"/>
<path d="M54.9883 230.92C54.9883 230.091 55.6599 229.42 56.4883 229.42H71.4883C72.3167 229.42 72.9883 230.091 72.9883 230.92C72.9883 231.748 72.3167 232.42 71.4883 232.42H56.4883C55.6599 232.42 54.9883 231.748 54.9883 230.92Z" fill="#0D0938"/>
<path fill-rule="evenodd" clip-rule="evenodd" d="M69.7725 212.034C74.8129 205.863 82.4866 201.92 91.0801 201.92C106.268 201.92 118.58 214.232 118.58 229.42C118.58 244.608 106.268 256.92 91.0801 256.92C80.0233 256.92 70.4936 250.395 66.1263 240.991C65.7773 240.24 66.1035 239.348 66.8548 238.999C67.6062 238.65 68.4982 238.976 68.8471 239.728C72.741 248.111 81.2338 253.92 91.0801 253.92C104.611 253.92 115.58 242.951 115.58 229.42C115.58 215.889 104.611 204.92 91.0801 204.92C83.4252 204.92 76.591 208.429 72.0958 213.932C71.5717 214.573 70.6268 214.669 69.9852 214.144C69.3436 213.62 69.2484 212.675 69.7725 212.034Z" fill="#0D0938"/>
</svg>
