<svg width="118" height="19" viewBox="0 0 118 19" fill="none" xmlns="http://www.w3.org/2000/svg">
<path d="M10.1221 18.9263C13.4852 18.9263 16.4554 17.3552 18.1247 15.0723L15.6208 12.7893C14.2216 14.5568 12.4542 15.4405 10.343 15.4405C8.69834 15.4405 7.32366 14.9004 6.21901 13.7958C5.11436 12.6911 4.57431 11.3164 4.57431 9.64719C4.57431 7.92885 5.13891 6.50508 6.24356 5.40042C7.34821 4.27123 8.72289 3.70663 10.3676 3.70663C12.4051 3.70663 14.1234 4.59035 15.5472 6.33324L17.9774 3.9521C16.3818 1.6937 13.4361 0.196289 10.1712 0.196289C7.56914 0.196289 5.35984 1.08001 3.51875 2.872C1.70221 4.63944 0.793945 6.89784 0.793945 9.64719C0.793945 12.372 1.67767 14.6059 3.46966 16.3487C5.26165 18.0671 7.4955 18.9263 10.1221 18.9263Z" fill="#397DFF"/>
<path d="M73.0166 4.93411C71.3965 4.93411 70.0464 5.57235 68.9417 6.82429V0H65.4805V18.6563H68.8435V16.9871C69.9482 18.3127 71.3228 18.9755 73.0166 18.9755C74.9068 18.9755 76.5024 18.3127 77.7789 16.9871C79.0554 15.637 79.6936 13.9677 79.6936 11.9793C79.6936 9.99096 79.0554 8.3217 77.7789 6.97158C76.5024 5.62145 74.9068 4.93411 73.0166 4.93411ZM68.7944 11.9548C68.7944 10.8992 69.1381 9.99096 69.8254 9.25452C70.5128 8.49354 71.3965 8.12532 72.4766 8.12532C73.5567 8.12532 74.4404 8.49354 75.1278 9.22997C75.8151 9.96641 76.1588 10.8747 76.1588 11.9548C76.1588 13.0349 75.8151 13.9432 75.1278 14.7041C74.4404 15.4406 73.5567 15.8088 72.4766 15.8088C71.3965 15.8088 70.5128 15.4406 69.8254 14.7041C69.1381 13.9432 68.7944 13.0349 68.7944 11.9548Z" fill="#397DFF"/>
<path d="M95.1031 11.6602C95.1031 9.57364 94.4649 7.95349 93.213 6.75065C91.961 5.5478 90.3409 4.93411 88.4016 4.93411C86.3396 4.93411 84.6703 5.5969 83.3693 6.92248C82.0683 8.24806 81.43 9.91731 81.43 11.9548C81.43 13.8941 82.0437 15.5633 83.2957 16.9134C84.5476 18.2636 86.3396 18.9509 88.6962 18.9509C90.9055 18.9509 92.8447 18.3372 94.5385 17.1098L93.1639 14.6796C92.0101 15.4651 90.2918 16.0297 88.8435 16.0297C86.7323 16.0297 85.4313 15.0724 84.9404 13.1822H94.9804C95.0541 12.6421 95.1031 12.1266 95.1031 11.6602ZM88.4016 7.8062C90.169 7.8062 91.421 8.86176 91.7401 10.6047H84.9404C85.3577 8.86176 86.6587 7.8062 88.4016 7.8062Z" fill="#397DFF"/>
<path d="M100.945 18.6563V12.2985C100.945 9.52455 102.246 8.24806 104.21 8.24806C104.701 8.24806 105.241 8.34625 105.805 8.51809L106.1 5.20413C105.56 5.00775 105.02 4.90956 104.48 4.90956C102.835 4.90956 101.608 5.62145 100.798 7.06977V5.27778H97.4837V18.6563H100.945Z" fill="#397DFF"/>
<path d="M112.068 19C113.663 19 114.964 18.6072 115.922 17.7972C116.904 16.9871 117.395 15.9561 117.395 14.7041C117.395 13.2313 116.634 12.1021 115.136 11.3165C114.768 11.1202 113.688 10.6783 111.921 10.0155C111.135 9.74548 110.742 9.35271 110.742 8.78811C110.742 8.17442 111.356 7.65892 112.264 7.65892C113.369 7.65892 114.4 8.10078 115.333 8.9845L117.051 6.75065C115.824 5.47416 114.253 4.83592 112.362 4.83592C110.865 4.83592 109.638 5.20413 108.729 5.96512C107.821 6.7261 107.355 7.68346 107.355 8.86176C107.355 10.4328 108.116 11.5866 109.662 12.323C109.957 12.4703 110.521 12.7158 111.38 13.0349C112.24 13.354 112.755 13.5504 112.976 13.6486C113.614 13.9432 113.933 14.3359 113.933 14.8023C113.933 15.5633 113.148 16.1034 112.092 16.1034C110.742 16.1034 109.343 15.3915 108.386 14.2377L106.545 16.4225C107.895 18.1408 109.736 19 112.068 19Z" fill="#397DFF"/>
<path fill-rule="evenodd" clip-rule="evenodd" d="M35.9515 8.76879H26.746C24.9572 8.76879 23.5071 10.2189 23.5071 12.0077C23.5071 13.7966 24.9572 15.2467 26.746 15.2467H35.9514C37.7403 15.2467 39.1904 13.7966 39.1904 12.0077C39.1904 10.2189 37.7403 8.76879 35.9515 8.76879ZM26.746 5.35938C23.0742 5.35938 20.0977 8.33595 20.0977 12.0077C20.0977 15.6795 23.0742 18.6561 26.746 18.6561H35.9514C39.6232 18.6561 42.5998 15.6795 42.5998 12.0077C42.5998 8.33595 39.6232 5.35938 35.9515 5.35938H26.746Z" fill="#397DFF"/>
<path fill-rule="evenodd" clip-rule="evenodd" d="M43.9639 8.76879C43.9639 6.88582 45.4903 5.35938 47.3733 5.35938H59.1358C61.0187 5.35938 62.5452 6.88582 62.5452 8.76879V18.6561L58.9653 18.6561V10.0473C58.9653 8.96462 58.0876 8.08691 57.0049 8.08691C55.9222 8.08691 55.0445 8.96462 55.0445 10.0473V18.6561H51.4646V10.0473C51.4646 8.96462 50.5869 8.08691 49.5042 8.08691C48.4215 8.08691 47.5437 8.96462 47.5437 10.0473V18.6561L43.9639 18.6561V8.76879Z" fill="#397DFF"/>
</svg>
