<svg width="45" height="57" viewBox="0 0 45 57" fill="none" xmlns="http://www.w3.org/2000/svg">
<path d="M29.2193 9.72034V-0.111328H6.05736C3.05628 -0.111328 0.568359 2.36181 0.568359 5.36245V51.4149C0.568359 54.416 3.05628 56.8887 6.05736 56.8887H39.1114C42.112 56.8887 44.5999 54.4155 44.5999 51.4149V16.0234H35.5371C32.039 16.0234 29.2193 13.2037 29.2193 9.72034ZM12.8732 28.1021L21.7098 18.6175C21.936 18.3761 22.2526 18.2404 22.5992 18.2404C22.9462 18.2404 23.2476 18.3761 23.4889 18.6175L32.3256 28.1021C32.7778 28.5848 32.7478 29.3537 32.2651 29.8064C32.039 30.0173 31.7372 30.123 31.451 30.123C31.134 30.123 30.8026 29.9873 30.5613 29.7459L23.7907 22.5079V39.7433C23.7907 40.4069 23.248 40.9496 22.5844 40.9496C21.9207 40.9496 21.378 40.4069 21.378 39.7433V22.5079L14.6375 29.7459C14.1852 30.2282 13.4159 30.2586 12.9336 29.8064C12.4509 29.3537 12.4209 28.6 12.8732 28.1021ZM36.2008 47.6902C36.2008 48.3538 35.658 48.8965 34.9944 48.8965H10.1739C9.51027 48.8965 8.96754 48.3538 8.96754 47.6902C8.96754 47.0266 9.51027 46.4838 10.1739 46.4838H35.0096C35.6732 46.4838 36.2008 47.027 36.2008 47.6902Z" fill="#397DFF"/>
<path d="M35.5365 13.611H42.9402L31.6309 1.74365V9.72057C31.6309 11.8771 33.3647 13.611 35.5365 13.611Z" fill="#397DFF"/>
</svg>
