<svg width="279" height="266" viewBox="0 0 279 266" fill="none" xmlns="http://www.w3.org/2000/svg">
<path opacity="0.04" fill-rule="evenodd" clip-rule="evenodd" d="M218.622 79.7899C248.338 116.541 281.51 150.97 278.305 182.004C275.164 212.977 235.522 240.557 197.576 250.986C159.568 261.352 123.255 254.566 86.3767 240.117C49.5622 225.73 12.1818 203.679 2.56949 172.267C-6.97971 140.918 11.2382 100.144 38.1909 64.0202C65.1426 27.959 100.826 -3.51539 131.737 0.317101C162.708 4.0865 188.907 43.0997 218.622 79.7899Z" fill="#397DFF"/>
<path d="M237.83 72.262C239.439 72.262 240.742 70.9581 240.742 69.3497C240.742 67.7413 239.439 66.4375 237.83 66.4375C236.222 66.4375 234.918 67.7413 234.918 69.3497C234.918 70.9581 236.222 72.262 237.83 72.262Z" fill="#397DFF"/>
<path d="M97.0725 265.44C99.7531 265.44 101.926 263.267 101.926 260.586C101.926 257.906 99.7531 255.732 97.0725 255.732C94.3918 255.732 92.2188 257.906 92.2188 260.586C92.2188 263.267 94.3918 265.44 97.0725 265.44Z" fill="#397DFF"/>
<path d="M48.5354 138.272C51.216 138.272 53.3891 136.099 53.3891 133.418C53.3891 130.738 51.216 128.564 48.5354 128.564C45.8547 128.564 43.6816 130.738 43.6816 133.418C43.6816 136.099 45.8547 138.272 48.5354 138.272Z" fill="#397DFF"/>
<path fill-rule="evenodd" clip-rule="evenodd" d="M66.5 109.324L66.3416 109.352C63.2816 109.879 60.2845 110.661 57.3491 111.699C57.079 111.795 56.7865 111.809 56.5085 111.739C56.2304 111.669 55.9793 111.519 55.7868 111.306C55.6602 111.167 55.5619 111.005 55.4975 110.828L55.4938 110.82L55.4911 110.811C55.4244 110.632 55.3951 110.44 55.4051 110.249C55.4152 110.057 55.4643 109.87 55.5495 109.698C55.7228 109.336 55.9988 109.087 56.3787 108.953C59.5124 107.845 62.736 107.008 66.0135 106.453C66.202 106.421 66.3951 106.426 66.5816 106.468C66.7681 106.511 66.9443 106.59 67.1 106.701C67.2563 106.812 67.3891 106.952 67.4908 107.114C67.5924 107.276 67.6609 107.457 67.6921 107.645C67.7596 108.042 67.677 108.404 67.4441 108.732C67.2103 109.06 66.8965 109.257 66.5 109.324ZM38.8725 120.7L38.879 120.707L38.8845 120.714C39.1398 121.02 39.4662 121.193 39.8623 121.23C40.2595 121.269 40.6125 121.162 40.9214 120.911C43.3709 118.919 45.9869 117.142 48.7408 115.598C49.0879 115.404 49.3174 115.115 49.4275 114.732C49.483 114.55 49.501 114.359 49.4805 114.17C49.4599 113.981 49.4012 113.798 49.3078 113.633L49.3032 113.624L49.2986 113.617C49.2076 113.448 49.083 113.3 48.9324 113.181C48.7818 113.063 48.6085 112.976 48.4232 112.927C48.2395 112.872 48.0465 112.855 47.856 112.878C47.6656 112.9 47.4818 112.962 47.316 113.058C44.4163 114.683 41.6619 116.555 39.0833 118.652C38.7725 118.905 38.5951 119.232 38.5539 119.632C38.5127 120.032 38.6195 120.388 38.8734 120.7L38.8725 120.7ZM26.5872 135.611L26.5955 135.616C26.9247 135.812 27.3181 135.869 27.6897 135.776C27.8766 135.73 28.0487 135.65 28.2032 135.534C28.3586 135.42 28.4865 135.28 28.5847 135.114C30.2105 132.413 32.0683 129.857 34.1371 127.477C34.2637 127.336 34.3604 127.17 34.4212 126.99C34.482 126.809 34.5057 126.619 34.4908 126.429C34.4816 126.238 34.4333 126.051 34.3489 125.879C34.2644 125.707 34.1457 125.554 33.9999 125.429L33.9925 125.423C33.8499 125.295 33.6826 125.198 33.5008 125.137C33.319 125.076 33.1266 125.053 32.9356 125.069C32.7442 125.08 32.557 125.129 32.3854 125.215C32.2139 125.3 32.0617 125.42 31.9382 125.567C29.7594 128.074 27.8027 130.766 26.09 133.612C25.9888 133.775 25.922 133.957 25.8937 134.146C25.8654 134.336 25.8761 134.529 25.9254 134.715C26.0216 135.105 26.2423 135.404 26.5872 135.611ZM20.0436 153.839L20.0535 153.841L20.0624 153.843C20.4354 153.915 20.8219 153.836 21.1374 153.625C21.297 153.519 21.4339 153.383 21.5402 153.224C21.6475 153.066 21.722 152.888 21.7594 152.7C22.3858 149.598 23.2771 146.555 24.4234 143.606C24.4935 143.428 24.5274 143.237 24.5232 143.046C24.519 142.855 24.4768 142.667 24.399 142.492C24.3229 142.318 24.2134 142.161 24.0765 142.029C23.9397 141.897 23.7783 141.794 23.6015 141.725L23.5934 141.722C23.4158 141.649 23.2252 141.614 23.0334 141.619C22.8417 141.623 22.6529 141.667 22.4788 141.747C22.302 141.822 22.1424 141.931 22.01 142.07C21.8775 142.209 21.7749 142.373 21.7087 142.553C20.5017 145.657 19.5634 148.859 18.904 152.124C18.8634 152.311 18.8615 152.505 18.8984 152.693C18.9354 152.881 19.0103 153.059 19.1187 153.217C19.3416 153.552 19.6495 153.76 20.0436 153.839ZM20.046 173.177L20.0556 173.176L20.0653 173.175C20.4582 173.11 20.7723 172.918 21.0077 172.596C21.2422 172.275 21.3311 171.917 21.2725 171.523C20.8084 168.403 20.616 165.249 20.6974 162.096C20.7051 161.906 20.6741 161.717 20.6062 161.539C20.5384 161.361 20.4352 161.199 20.3029 161.062C20.1751 160.922 20.02 160.809 19.8471 160.73C19.6742 160.651 19.487 160.608 19.297 160.604L19.2883 160.603L19.2785 160.603C18.9905 160.595 18.7066 160.673 18.4631 160.827C18.2196 160.981 18.0274 161.204 17.9113 161.467C17.8329 161.642 17.7901 161.83 17.7854 162.021C17.6998 165.342 17.9026 168.665 18.3917 171.951C18.4191 172.14 18.4838 172.322 18.5822 172.486C18.6805 172.65 18.8104 172.793 18.9644 172.907C19.1199 173.021 19.2909 173.103 19.4782 173.149C19.6657 173.197 19.8546 173.205 20.046 173.177ZM23.4579 180.713C23.4011 180.532 23.308 180.364 23.1844 180.22C23.0607 180.075 22.9091 179.957 22.7386 179.873C22.5692 179.783 22.3833 179.729 22.1922 179.714C22.0011 179.699 21.8089 179.723 21.6274 179.784L21.618 179.788C21.4365 179.848 21.2688 179.943 21.1245 180.068C20.9792 180.192 20.86 180.344 20.774 180.515C20.6881 180.686 20.637 180.872 20.6238 181.063C20.6099 181.256 20.6325 181.444 20.6937 181.627C21.7364 184.782 23.0479 187.842 24.6138 190.772C24.8033 191.127 25.0905 191.362 25.4761 191.479C25.8598 191.596 26.2299 191.56 26.5843 191.37L26.5926 191.366L26.601 191.361C26.9373 191.177 27.1873 190.868 27.2964 190.5C27.4054 190.133 27.3647 189.737 27.183 189.4C25.6952 186.616 24.4489 183.71 23.4579 180.713ZM39.0145 206.187L39.0101 206.192L39.0056 206.196C38.877 206.338 38.7216 206.453 38.5483 206.534C38.3751 206.615 38.1874 206.661 37.9963 206.67C37.8053 206.679 37.6144 206.65 37.4347 206.585C37.2549 206.52 37.0898 206.42 36.9488 206.29C34.9991 204.505 33.1225 202.642 31.3235 200.706L31.2984 200.676C30.8687 200.162 30.4479 199.642 30.0361 199.114C29.9159 198.965 29.8275 198.792 29.7764 198.607C29.7254 198.422 29.7128 198.229 29.7393 198.039C29.7885 197.64 29.9721 197.318 30.2892 197.07L30.2965 197.065C30.4464 196.948 30.6178 196.863 30.8008 196.813C30.9838 196.763 31.1748 196.749 31.363 196.773C31.5531 196.796 31.7367 196.857 31.9032 196.951C32.0697 197.045 32.2158 197.172 32.3331 197.323C32.7161 197.814 33.1071 198.299 33.5058 198.777C35.2357 200.635 37.0391 202.425 38.9115 204.14C39.2065 204.409 39.364 204.742 39.3841 205.142C39.3965 205.332 39.37 205.523 39.3063 205.703C39.2426 205.882 39.143 206.047 39.0135 206.187L39.0145 206.187ZM46.3714 210.099C46.2161 209.989 46.0401 209.912 45.8541 209.872C45.6681 209.832 45.476 209.831 45.2894 209.868C45.1019 209.899 44.9228 209.968 44.7627 210.071C44.6027 210.173 44.4652 210.307 44.3584 210.465L44.3532 210.472L44.348 210.479C44.2402 210.637 44.1646 210.815 44.1257 211.002C44.0648 211.284 44.0898 211.578 44.1974 211.845C44.3051 212.113 44.4904 212.342 44.7296 212.503C47.6596 214.504 50.5694 216.103 53.4579 217.3C53.7236 217.412 54.0166 217.442 54.2994 217.386C54.5822 217.33 54.8418 217.191 55.0448 216.986C55.1816 216.849 55.2865 216.692 55.3602 216.513L55.3659 216.5L55.3705 216.487C55.5159 216.119 55.5105 215.752 55.355 215.386C55.2836 215.211 55.1776 215.052 55.0433 214.919C54.9089 214.785 54.7491 214.68 54.5733 214.61C51.87 213.49 49.1364 211.986 46.3714 210.099ZM63.509 216.929C63.3216 216.907 63.1318 216.924 62.9509 216.977C62.77 217.03 62.6016 217.12 62.4559 217.239C62.3019 217.358 62.1743 217.508 62.0812 217.679C61.9881 217.85 61.9315 218.039 61.915 218.233C61.8748 218.633 61.9825 218.988 62.2364 219.3C62.4914 219.611 62.8189 219.787 63.2192 219.827C66.4882 220.159 69.7896 219.946 72.989 219.198C73.1756 219.155 73.3518 219.075 73.5075 218.964C73.6632 218.853 73.7952 218.711 73.8958 218.548C73.9972 218.386 74.0654 218.206 74.0966 218.017C74.1277 217.829 74.1212 217.636 74.0774 217.449C74.0032 217.113 73.8089 216.816 73.531 216.613C73.3791 216.496 73.205 216.412 73.0193 216.364C72.8336 216.317 72.6402 216.308 72.4508 216.338C72.41 216.344 72.3694 216.352 72.3292 216.361C69.421 217.038 66.4809 217.228 63.509 216.929Z" fill="#0D0938"/>
<path d="M264.471 191.305L251.13 193.898C250.078 194.103 249.059 193.415 248.854 192.363C248.65 191.31 249.337 190.291 250.39 190.086L263.73 187.493C264.783 187.289 265.802 187.976 266.006 189.029C266.211 190.081 265.524 191.1 264.471 191.305Z" fill="#0D0938"/>
<path d="M264.19 207.229L250.767 205.103C249.708 204.935 248.986 203.94 249.153 202.881C249.321 201.822 250.316 201.1 251.375 201.267L264.798 203.393C265.857 203.561 266.579 204.556 266.412 205.615C266.244 206.674 265.249 207.396 264.19 207.229Z" fill="#0D0938"/>
<path d="M254.716 172.039L244.306 180.774C243.484 181.464 243.377 182.688 244.066 183.51C244.756 184.331 245.98 184.438 246.802 183.749L257.212 175.013C258.034 174.324 258.141 173.099 257.452 172.278C256.762 171.457 255.538 171.35 254.716 172.039Z" fill="#0D0938"/>
<path opacity="0.7" fill-rule="evenodd" clip-rule="evenodd" d="M108.47 56.5106C82.2424 63.5388 65.3708 89.0034 69.0907 115.901C73.9833 151.277 79.8951 194.596 80.3096 200.366C80.861 208.026 76.5878 217.088 74.5919 220.854C73.2768 222.179 72.3324 223.826 71.853 225.631C71.3737 227.435 71.3762 229.334 71.8603 231.138C73.3872 236.834 79.2418 240.215 84.9381 238.688L219.963 202.508C225.659 200.982 229.039 195.127 227.513 189.431C227.004 187.529 225.98 185.806 224.553 184.45C223.126 183.094 221.352 182.16 219.427 181.749C215.745 179.702 208.637 175.021 205.154 167.842C202.357 162.078 185.747 121.423 172.285 88.2792C162.062 63.1117 134.709 49.4805 108.47 56.5106Z" fill="#397DFF"/>
<path fill-rule="evenodd" clip-rule="evenodd" d="M121.218 66.5315C110.325 70.8018 101.343 78.2542 94.2742 88.8858C85.9074 101.47 82.6972 114.787 84.6425 128.838C85.6788 136.315 86.7172 143.792 87.7576 151.269C92.3638 184.395 94.812 202.979 95.1033 207.022C95.4333 211.622 94.3354 217.013 91.8086 223.197C91.5571 223.813 91.3038 224.411 91.0485 224.993L226.103 188.804C225.886 188.654 225.671 188.503 225.456 188.35C220.326 184.689 216.648 180.566 214.422 175.979C212.464 171.944 205.183 154.373 192.577 123.267C188.927 114.258 186.079 107.238 184.036 102.205C178.701 89.0635 169.265 79.1347 155.728 72.4191C144.291 66.7461 132.788 64.7832 121.218 66.5315ZM229.896 187.788C232.096 189.124 233.643 189.799 233.643 189.799L85.491 229.497C85.491 229.497 86.3054 228.147 87.3684 225.979C89.5147 221.6 92.6783 213.886 92.1988 207.231C91.6726 199.915 87.8101 172.933 81.7594 129.237C78.2677 104.027 92.3891 78.327 114.497 66.5073C116.434 65.4711 118.428 64.5458 120.47 63.7358C122.649 63.4145 124.838 63.2213 127.028 63.1495C152.084 62.3321 177.162 77.5291 186.736 101.109C203.371 142.086 213.493 167.392 217.043 174.707C220.119 181.047 226.023 185.439 229.896 187.788ZM114.107 65.0512L126.637 61.6934C124.516 62.2679 122.49 63.1492 120.623 64.3095C118.426 64.238 116.231 64.4878 114.107 65.0512Z" fill="#0D0938"/>
<path fill-rule="evenodd" clip-rule="evenodd" d="M226.329 188.743L91.3039 224.924C88.4557 225.687 86.2949 227.345 84.8203 229.898C83.3467 232.452 82.9905 235.152 83.7535 238L83.7544 238.002C84.5174 240.85 86.1755 243.011 88.7295 244.485C91.2825 245.96 93.9832 246.315 96.8313 245.552L231.857 209.372C234.705 208.609 236.866 206.95 238.34 204.397C239.814 201.844 240.17 199.143 239.407 196.295L239.406 196.293C238.643 193.445 236.985 191.284 234.431 189.81C231.878 188.335 229.178 187.98 226.329 188.743ZM87.3423 231.354C88.415 229.498 89.9866 228.291 92.0572 227.737L227.084 191.556C229.154 191.001 231.118 191.26 232.975 192.332C234.832 193.404 236.039 194.976 236.593 197.047L236.594 197.049C237.149 199.12 236.89 201.084 235.818 202.941C234.746 204.798 233.174 206.004 231.104 206.559L96.077 242.739C94.0065 243.294 92.0426 243.036 90.1856 241.963C88.3286 240.891 87.1219 239.32 86.5676 237.248L86.5667 237.246C86.0114 235.176 86.2706 233.211 87.3423 231.354ZM151.97 233.792C152.359 233.688 152.727 233.737 153.075 233.938C153.424 234.139 153.65 234.434 153.754 234.822C154.656 238.188 156.615 240.743 159.634 242.484C162.652 244.227 165.843 244.647 169.21 243.745C172.575 242.843 175.13 240.883 176.872 237.865C178.614 234.847 179.035 231.656 178.133 228.289C178.029 227.901 178.078 227.533 178.279 227.184C178.48 226.836 178.775 226.611 179.163 226.506C179.551 226.402 179.919 226.45 180.268 226.651C180.616 226.852 180.842 227.147 180.946 227.536C182.056 231.679 181.539 235.608 179.395 239.322C177.25 243.036 174.106 245.448 169.963 246.558C165.821 247.668 161.891 247.152 158.177 245.006C154.463 242.862 152.051 239.719 150.941 235.575C150.837 235.187 150.885 234.819 151.086 234.471C151.287 234.122 151.582 233.896 151.97 233.792Z" fill="#0D0938"/>
<path d="M172.791 115.945C197.453 115.945 217.445 95.9527 217.445 71.2909C217.445 46.6291 197.453 26.6367 172.791 26.6367C148.129 26.6367 128.137 46.6291 128.137 71.2909C128.137 95.9527 148.129 115.945 172.791 115.945Z" fill="#F8F8F8"/>
<path opacity="0.7" d="M178.615 99.4423C197.379 99.4423 212.591 84.2307 212.591 65.4662C212.591 46.7018 197.379 31.4902 178.615 31.4902C159.85 31.4902 144.639 46.7018 144.639 65.4662C144.639 84.2307 159.85 99.4423 178.615 99.4423Z" fill="#397DFF"/>
<path fill-rule="evenodd" clip-rule="evenodd" d="M205.796 70.3207C205.796 89.0852 190.584 104.297 171.82 104.297C153.055 104.297 137.844 89.0852 137.844 70.3207C137.844 51.5563 153.055 36.3447 171.82 36.3447C190.584 36.3447 205.796 51.5563 205.796 70.3207ZM193.785 92.2857C187.72 98.3509 180.397 101.385 171.82 101.385C163.241 101.385 155.92 98.3509 149.854 92.2857C143.789 86.2205 140.756 78.8982 140.756 70.3207C140.756 61.7423 143.789 54.42 149.854 48.3548C155.92 42.2896 163.241 39.257 171.82 39.257C180.397 39.257 187.72 42.2896 193.785 48.3548C199.85 54.4209 202.884 61.7423 202.884 70.3207C202.884 78.8982 199.85 86.2205 193.785 92.2857Z" fill="#0D0938"/>
<path fill-rule="evenodd" clip-rule="evenodd" d="M179.585 71.3138C179.585 75.2463 178.946 78.1673 177.668 80.0757C176.391 81.9852 174.438 82.9404 171.811 82.9404C169.266 82.9404 167.337 81.9541 166.023 79.9835C164.709 78.0119 164.053 75.122 164.053 71.3138C164.053 67.3202 164.691 64.3769 165.968 62.483C167.246 60.589 169.193 59.6426 171.811 59.6426C174.365 59.6426 176.3 60.6327 177.613 62.614C178.927 64.5963 179.585 67.4959 179.585 71.3138ZM167.776 71.3148C167.776 74.3998 168.096 76.6034 168.737 77.9246C169.378 79.2458 170.402 79.9059 171.811 79.9059C173.218 79.9059 174.248 79.2351 174.9 77.8935C175.551 76.5519 175.877 74.359 175.877 71.3148C175.877 68.2802 175.551 66.0844 174.9 64.7273C174.248 63.3702 173.218 62.6917 171.811 62.6917C170.402 62.6917 169.378 63.3576 168.737 64.6885C168.096 66.0204 167.776 68.2288 167.776 71.3148Z" fill="#0D0938"/>
</svg>
